<svg width="575" height="553" viewBox="0 0 575 553" fill="none" xmlns="http://www.w3.org/2000/svg">
<path d="M284.044 463.061C283.273 463.061 282.759 463.061 281.987 463.061L282.759 422.203C283.273 422.203 283.787 422.203 284.301 422.203L284.044 463.061ZM287.901 463.061L287.386 422.203C287.901 422.203 288.415 422.203 288.929 422.203L289.957 463.061C289.443 463.061 288.672 463.061 287.901 463.061ZM277.874 463.061C277.103 463.061 276.588 463.061 275.817 463.061L277.874 422.46C278.388 422.46 278.902 422.46 279.416 422.46L277.874 463.061ZM294.071 463.061L292.271 422.46C292.785 422.46 293.3 422.46 293.814 422.46L296.128 463.061C295.356 462.804 294.842 463.061 294.071 463.061ZM271.704 462.804C270.932 462.804 270.418 462.804 269.647 462.547L272.732 421.946C273.246 421.946 273.76 421.946 274.275 421.946L271.704 462.804ZM300.241 462.547L297.156 421.946C297.67 421.946 298.184 421.946 298.699 421.946L302.041 462.547C301.527 462.547 300.755 462.547 300.241 462.547ZM265.79 462.29C265.019 462.29 264.505 462.034 263.734 462.034L268.104 421.432C268.618 421.432 269.133 421.432 269.647 421.689L265.79 462.29ZM306.154 462.034L301.784 421.432C302.298 421.432 302.812 421.432 303.326 421.175L307.954 461.777C307.697 462.033 306.926 462.034 306.154 462.034ZM259.62 461.52C258.849 461.52 258.335 461.263 257.563 461.263L263.219 420.918C263.734 420.918 264.248 421.175 264.762 421.175L259.62 461.52ZM312.325 461.263L306.926 420.918C307.44 420.918 307.954 420.661 308.468 420.661L314.381 461.006C313.61 461.263 312.839 461.263 312.325 461.263ZM253.707 460.492C252.936 460.492 252.421 460.235 251.65 460.235L258.592 420.147C259.106 420.147 259.62 420.404 260.134 420.404L253.707 460.492ZM318.238 460.492L311.553 420.404C312.068 420.404 312.582 420.147 313.096 420.147L320.295 460.235C319.781 460.235 319.009 460.235 318.238 460.492ZM247.537 459.464C246.765 459.207 246.251 459.207 245.48 458.95L253.707 419.119C254.221 419.119 254.735 419.376 255.249 419.376L247.537 459.464ZM324.408 459.207L316.438 419.376C316.952 419.376 317.467 419.119 317.981 419.119L326.465 458.95C325.694 458.95 324.922 459.207 324.408 459.207ZM241.623 458.179C240.852 457.922 240.338 457.922 239.567 457.665L249.079 418.092C249.593 418.092 250.108 418.349 250.622 418.349L241.623 458.179ZM330.321 457.922L321.066 418.349C321.58 418.349 322.094 418.092 322.609 417.835L332.378 457.408C331.607 457.665 330.836 457.922 330.321 457.922ZM235.71 456.894C234.939 456.637 234.425 456.637 233.653 456.38L244.451 417.064C244.966 417.321 245.48 417.321 245.994 417.578L235.71 456.894ZM336.235 456.637L325.694 417.321C326.208 417.064 326.722 417.064 327.236 416.807L338.034 456.123C337.52 456.123 336.749 456.38 336.235 456.637ZM229.797 455.352C229.026 455.095 228.512 455.095 227.74 454.838L239.567 415.779C240.081 416.036 240.595 416.036 241.109 416.293L229.797 455.352ZM342.148 454.838L330.579 415.779C331.093 415.522 331.607 415.522 332.121 415.265L344.205 454.067C343.433 454.581 342.662 454.581 342.148 454.838ZM223.884 453.296C223.113 453.04 222.598 452.783 221.827 452.526L234.939 413.98C235.453 414.237 235.967 414.237 236.482 414.494L223.884 453.296ZM347.804 453.04L334.949 414.494C335.463 414.237 335.978 414.237 336.492 413.98L349.861 452.526C349.089 452.526 348.575 452.783 347.804 453.04ZM218.228 451.498C217.456 451.241 216.942 450.984 216.171 450.727L230.568 412.695C231.082 412.952 231.597 412.952 232.111 413.209L218.228 451.498ZM353.717 450.984L339.577 412.695C340.091 412.438 340.605 412.438 341.119 412.181L355.517 450.213C355.003 450.47 354.231 450.727 353.717 450.984ZM212.572 449.185C212.057 448.928 211.286 448.671 210.772 448.414L226.198 410.639C226.712 410.896 227.226 411.153 227.74 411.153L212.572 449.185ZM359.373 448.928L343.947 411.153C344.462 410.896 344.976 410.639 345.49 410.639L361.173 448.157C360.659 448.414 359.887 448.671 359.373 448.928ZM206.915 446.872C206.401 446.615 205.63 446.358 205.116 446.101L221.827 408.841C222.341 409.098 222.855 409.355 223.37 409.612L206.915 446.872ZM365.029 446.358L348.575 409.098C349.089 408.841 349.604 408.584 350.118 408.327L367.086 445.33C366.315 445.844 365.544 446.101 365.029 446.358ZM201.259 444.303C200.745 444.046 199.974 443.789 199.46 443.532L217.199 406.785C217.714 407.042 218.228 407.299 218.742 407.556L201.259 444.303ZM370.428 443.789L352.946 407.042C353.46 406.785 353.974 406.528 354.488 406.271L372.485 442.761C371.714 443.275 371.2 443.532 370.428 443.789ZM195.603 441.733C195.089 441.476 194.318 441.219 193.804 440.705L212.829 404.729C213.343 404.986 213.857 405.243 214.371 405.5L195.603 441.733ZM375.827 441.219L357.059 404.986C357.574 404.729 358.088 404.472 358.602 404.215L377.627 440.191C377.113 440.448 376.599 440.962 375.827 441.219ZM190.461 438.906C189.947 438.649 189.176 438.135 188.662 437.878L208.715 402.416C209.229 402.673 209.744 402.93 210.001 403.187L190.461 438.906ZM381.226 438.392L361.43 402.673C361.944 402.416 362.458 402.159 362.715 401.902L383.026 437.364C382.512 437.621 381.998 437.878 381.226 438.392ZM185.062 435.823C184.548 435.566 183.777 435.052 183.263 434.795L204.345 399.847C204.859 400.104 205.373 400.361 205.63 400.618L185.062 435.823ZM386.625 435.309L365.801 400.361C366.315 400.104 366.829 399.847 367.086 399.59L388.425 434.281C387.654 434.538 387.14 435.052 386.625 435.309ZM179.92 432.482C179.406 432.225 178.892 431.711 178.121 431.454L200.231 397.277C200.745 397.534 201.002 397.791 201.516 398.048L179.92 432.482ZM391.767 431.968L369.657 397.791C370.171 397.534 370.428 397.277 370.943 397.02L393.31 431.197C392.796 431.454 392.281 431.711 391.767 431.968ZM174.779 429.141C174.264 428.884 173.75 428.37 173.236 428.113L196.375 394.707C196.889 394.964 197.146 395.221 197.66 395.735L174.779 429.141ZM396.909 428.627L373.771 394.964C374.285 394.707 374.542 394.45 375.056 393.936L398.452 427.342C397.938 427.856 397.423 428.37 396.909 428.627ZM169.637 425.801C169.122 425.287 168.608 425.03 168.094 424.516L192.518 391.881C193.032 392.138 193.289 392.395 193.804 392.908L169.637 425.801ZM401.794 425.287L377.627 392.395C378.141 392.138 378.398 391.881 378.913 391.367L403.337 424.002C402.822 424.259 402.308 424.773 401.794 425.287ZM164.752 421.946C164.238 421.432 163.723 421.175 163.209 420.661L188.405 388.797C188.919 389.054 189.176 389.568 189.69 389.825L164.752 421.946ZM406.679 421.432L381.483 389.311C381.998 389.054 382.255 388.54 382.769 388.283L408.221 420.147C407.707 420.661 407.193 421.175 406.679 421.432ZM160.124 418.349C159.61 417.835 159.096 417.578 158.581 417.064L184.805 385.97C185.319 386.227 185.577 386.741 186.091 386.998L160.124 418.349ZM411.307 417.578L385.34 386.484C385.854 386.227 386.111 385.713 386.625 385.456L413.106 416.55C412.335 416.807 411.821 417.321 411.307 417.578ZM155.496 414.237C154.982 413.723 154.468 413.466 153.954 412.952L181.206 382.63C181.72 382.887 181.977 383.401 182.491 383.658L155.496 414.237ZM415.934 413.723L388.939 383.144C389.453 382.887 389.711 382.373 390.225 382.116L417.477 412.438C416.963 412.952 416.448 413.209 415.934 413.723ZM150.869 410.126C150.354 409.612 149.84 409.098 149.326 408.841L177.349 379.289C177.864 379.546 178.121 380.06 178.635 380.317L150.869 410.126ZM420.562 409.612L392.539 380.06C393.053 379.803 393.31 379.289 393.824 379.032L422.105 408.327C421.59 408.584 421.076 409.098 420.562 409.612ZM146.498 406.014C145.984 405.5 145.47 404.986 144.955 404.472L174.007 375.948C174.264 376.205 174.779 376.719 175.036 376.976L146.498 406.014ZM424.933 405.243L396.138 376.462C396.395 376.205 396.909 375.691 397.166 375.435L426.218 403.958C425.704 404.472 425.447 404.986 424.933 405.243ZM142.384 401.645C141.87 401.132 141.356 400.618 141.099 400.104L170.922 372.351C171.179 372.865 171.693 373.122 171.95 373.636L142.384 401.645ZM429.046 400.875L399.223 372.865C399.48 372.351 399.994 372.094 400.251 371.58L430.332 399.076C430.075 400.104 429.56 400.618 429.046 400.875ZM138.014 397.02C137.5 396.506 136.985 395.992 136.728 395.478L167.58 368.753C167.837 369.267 168.351 369.524 168.608 370.038L138.014 397.02ZM433.16 396.506L402.565 369.524C402.822 369.01 403.337 368.753 403.594 368.239L434.445 394.964C434.188 395.478 433.674 395.992 433.16 396.506ZM134.157 392.652C133.643 392.138 133.386 391.624 132.872 391.11L164.495 365.413C164.752 365.927 165.266 366.184 165.523 366.698L134.157 392.652ZM437.273 391.881L405.908 365.927C406.165 365.413 406.679 365.156 406.936 364.642L438.559 390.339C438.044 390.853 437.53 391.367 437.273 391.881ZM130.301 387.769C129.787 387.255 129.53 386.741 129.015 386.227L161.41 361.301C161.667 361.815 162.181 362.072 162.438 362.586L130.301 387.769ZM441.13 386.998L408.993 362.072C409.25 361.558 409.764 361.301 410.021 360.787L442.415 385.456C441.901 385.97 441.387 386.484 441.13 386.998ZM126.702 382.887C126.187 382.373 125.93 381.859 125.416 381.345L158.581 357.447C158.839 357.961 159.096 358.217 159.61 358.731L126.702 382.887ZM444.729 382.373L411.821 358.217C412.078 357.704 412.335 357.447 412.849 356.933L446.015 380.574C445.5 381.088 444.986 381.602 444.729 382.373ZM123.102 378.004C122.845 377.49 122.331 376.976 122.074 376.205L155.753 353.335C156.011 353.849 156.268 354.106 156.782 354.62L123.102 378.004ZM448.071 377.233L414.392 354.363C414.649 353.849 414.906 353.592 415.42 353.078L449.357 375.691C448.843 376.205 448.585 376.719 448.071 377.233ZM119.76 372.865C119.503 372.351 118.989 371.837 118.732 371.066L153.182 349.224C153.44 349.737 153.697 350.251 153.954 350.508L119.76 372.865ZM451.671 372.094L417.22 349.994C417.477 349.48 417.734 348.967 417.991 348.71L452.699 370.295C452.185 371.066 451.928 371.58 451.671 372.094ZM116.418 367.725C116.161 367.211 115.647 366.441 115.389 365.927L150.612 345.369C150.869 345.883 151.126 346.397 151.383 346.654L116.418 367.725ZM454.756 366.954L419.791 346.14C420.048 345.626 420.305 345.112 420.562 344.855L455.784 365.413C455.527 365.927 455.013 366.441 454.756 366.954ZM113.333 362.586C113.076 362.072 112.561 361.301 112.304 360.787L148.041 341.257C148.298 341.771 148.555 342.285 148.812 342.799L113.333 362.586ZM457.841 361.558L422.105 341.771C422.362 341.257 422.619 340.743 422.876 340.487L458.612 360.016C458.355 360.53 458.098 361.044 457.841 361.558ZM110.505 357.19C110.247 356.676 109.99 355.905 109.476 355.391L145.727 336.889C145.984 337.403 146.241 337.917 146.498 338.431L110.505 357.19ZM460.669 356.419L424.418 337.66C424.676 337.146 424.933 336.632 425.19 336.118L461.697 354.363C461.44 355.134 460.926 355.648 460.669 356.419ZM107.677 351.793C107.419 351.279 107.162 350.508 106.905 349.994L143.67 332.777C143.927 333.291 144.184 333.805 144.441 334.319L107.677 351.793ZM463.497 350.765L426.732 333.291C426.989 332.777 427.247 332.264 427.504 331.75L464.525 348.967C464.011 349.48 463.754 350.251 463.497 350.765ZM105.106 346.14C104.848 345.626 104.591 344.855 104.334 344.341L141.87 328.152C142.127 328.666 142.384 329.18 142.642 329.694L105.106 346.14ZM466.068 345.369L428.789 328.923C429.046 328.409 429.303 327.895 429.303 327.381L466.839 343.313C466.582 344.084 466.325 344.598 466.068 345.369ZM102.792 340.744C102.535 340.23 102.278 339.459 102.02 338.945L139.814 324.04C140.071 324.554 140.328 325.068 140.328 325.582L102.792 340.744ZM468.382 339.716L430.589 324.554C430.846 324.04 431.103 323.527 431.103 323.013L469.153 337.917C468.896 338.431 468.639 338.945 468.382 339.716ZM100.735 334.833C100.478 334.319 100.221 333.548 99.9637 333.034L138.271 319.158C138.528 319.672 138.528 320.186 138.785 320.7L100.735 334.833ZM470.439 333.805L432.131 319.672C432.388 319.158 432.388 318.644 432.646 318.13L470.953 331.75C470.953 332.52 470.696 333.291 470.439 333.805ZM98.6782 329.18C98.4211 328.409 98.164 327.895 98.164 327.124L136.985 314.533C137.243 315.046 137.243 315.56 137.5 316.074L98.6782 329.18ZM472.495 328.152L433.674 315.303C433.931 314.79 433.931 314.276 434.188 313.762L473.01 326.096C473.01 326.867 472.752 327.381 472.495 328.152ZM96.6214 323.27C96.3643 322.499 96.1072 321.985 96.1072 321.214L135.186 309.907C135.443 310.421 135.443 310.935 135.7 311.449L96.6214 323.27ZM474.295 322.242L435.216 310.678C435.474 310.164 435.474 309.65 435.731 309.136L474.809 320.443C474.809 320.957 474.552 321.728 474.295 322.242ZM95.0788 317.616C94.8217 316.845 94.8218 316.331 94.5647 315.56L134.157 305.282C134.415 305.796 134.414 306.31 134.672 306.823L95.0788 317.616ZM476.095 316.331L436.759 306.053C437.016 305.539 437.016 305.025 437.273 304.511L476.866 314.533C476.352 315.046 476.095 315.817 476.095 316.331ZM93.5363 311.706C93.2792 310.935 93.2792 310.421 93.0221 309.65L132.872 300.656C132.872 301.17 133.129 301.684 133.129 302.198L93.5363 311.706ZM477.38 310.421L437.53 301.17C437.53 300.656 437.787 300.142 437.787 299.628L477.894 308.365C477.894 309.136 477.637 309.907 477.38 310.421ZM92.2508 305.539C91.9937 304.768 91.9937 304.254 91.7366 303.483L131.844 295.774C131.844 296.288 132.101 296.802 132.101 297.316L92.2508 305.539ZM478.666 304.511L438.559 296.545C438.559 296.031 438.816 295.517 438.816 295.003L478.923 302.455C478.923 303.226 478.923 303.74 478.666 304.511ZM91.2224 299.628C91.2224 298.857 90.9653 298.343 90.9653 297.573L131.329 291.148C131.329 291.662 131.586 292.176 131.586 292.69L91.2224 299.628ZM479.951 298.6L439.844 291.919C439.844 291.405 440.101 290.891 440.101 290.377L480.465 296.545C479.951 297.059 479.951 297.829 479.951 298.6ZM90.194 293.718C90.194 292.947 89.9369 292.433 89.9369 291.662L130.301 286.523C130.301 287.037 130.558 287.551 130.558 288.065L90.194 293.718ZM480.722 292.433L440.358 287.037C440.358 286.523 440.616 286.009 440.616 285.495L480.979 290.377C480.979 291.148 480.722 291.919 480.722 292.433ZM89.4227 287.551C89.4227 286.78 89.1657 286.266 89.1657 285.495L129.787 281.64C129.787 282.154 129.787 282.668 130.044 283.182L89.4227 287.551ZM481.494 286.523L440.873 282.411C440.873 281.897 440.873 281.383 441.13 280.869L481.751 284.724C481.494 284.981 481.494 285.752 481.494 286.523ZM88.9085 281.383C88.9085 280.612 88.9085 280.099 88.6515 279.328L129.273 276.501C129.273 277.015 129.273 277.529 129.273 278.043L88.9085 281.383ZM482.008 280.355L441.387 277.529C441.387 277.015 441.387 276.501 441.387 275.987L482.008 278.557C482.008 279.071 482.008 279.585 482.008 280.355ZM88.3944 275.473C88.3944 274.702 88.3944 274.188 88.3944 273.417L129.015 271.876C129.015 272.389 129.015 272.903 129.015 273.417L88.3944 275.473ZM482.265 274.188L441.644 272.389C441.644 271.875 441.644 271.362 441.644 270.848L482.522 272.132C482.265 272.903 482.265 273.674 482.265 274.188ZM88.3944 269.306C88.3944 268.535 88.3944 268.021 88.3944 267.25L129.273 266.993C129.273 267.507 129.273 268.021 129.273 268.535L88.3944 269.306ZM482.522 268.278L441.644 267.764C441.644 267.25 441.644 266.736 441.644 266.222V265.965H482.522V266.222C482.522 266.736 482.522 267.507 482.522 268.278ZM129.015 263.909L88.1373 263.395C88.1373 262.625 88.1373 262.111 88.1373 261.34L129.015 262.368C129.015 262.882 129.015 263.395 129.015 263.909ZM441.644 262.625C441.644 262.111 441.644 261.597 441.644 261.083L482.522 259.798C482.522 260.569 482.522 261.083 482.522 261.854L441.644 262.625ZM129.273 259.027L88.6515 257.228C88.6515 256.457 88.6515 255.943 88.6515 255.172L129.273 257.485C129.273 257.999 129.273 258.513 129.273 259.027ZM441.387 257.742C441.387 257.228 441.387 256.714 441.387 256.2L482.008 253.631C482.008 254.402 482.008 254.915 482.008 255.686L441.387 257.742ZM129.53 254.145L88.9085 251.061C88.9085 250.29 88.9086 249.776 89.1657 249.005L129.787 252.603C129.53 253.117 129.53 253.631 129.53 254.145ZM441.13 253.117C441.13 252.603 441.13 252.089 440.873 251.575L481.494 247.72C481.494 248.491 481.494 249.005 481.751 249.776L441.13 253.117ZM130.044 249.262L89.4227 244.894C89.4227 244.123 89.6798 243.609 89.6798 242.838L130.301 247.463C130.044 248.234 130.044 248.748 130.044 249.262ZM440.616 248.234C440.616 247.72 440.616 247.206 440.358 246.692L480.722 241.553C480.722 242.324 480.979 242.838 480.979 243.609L440.616 248.234ZM130.558 244.637L90.194 238.983C90.194 238.212 90.4511 237.698 90.4511 236.928L130.815 242.838C130.558 243.609 130.558 244.123 130.558 244.637ZM440.101 243.352C440.101 242.838 439.844 242.324 439.844 241.81L480.208 235.386C480.208 236.157 480.465 236.671 480.465 237.441L440.101 243.352ZM131.329 239.754L91.2224 233.073C91.2224 232.302 91.4795 231.788 91.4795 231.017L131.586 238.212C131.329 238.726 131.329 239.24 131.329 239.754ZM439.33 238.726C439.33 238.212 439.073 237.698 439.073 237.185L479.18 229.732C479.18 230.503 479.437 231.017 479.437 231.788L439.33 238.726ZM132.101 235.129L92.2508 226.906C92.5079 226.135 92.5079 225.621 92.765 224.85L132.615 233.33C132.358 233.844 132.358 234.615 132.101 235.129ZM438.302 233.844C438.302 233.33 438.045 232.816 438.045 232.302L477.894 223.565C478.151 224.336 478.151 224.85 478.409 225.621L438.302 233.844ZM133.129 230.246L93.5363 220.995C93.7934 220.224 93.7934 219.711 94.0505 218.94L133.643 228.704C133.386 229.218 133.386 229.732 133.129 230.246ZM437.273 229.218C437.273 228.704 437.016 228.191 436.759 227.677L476.352 217.655C476.609 218.426 476.609 218.94 476.866 219.711L437.273 229.218ZM134.414 225.621L95.0788 215.085C95.3359 214.314 95.336 213.8 95.593 213.029L134.929 224.079C134.672 224.593 134.414 225.107 134.414 225.621ZM436.245 224.593C435.988 224.079 435.988 223.565 435.731 223.051L474.809 211.744C475.066 212.515 475.066 213.029 475.323 213.8L436.245 224.593ZM135.7 220.995L96.6214 209.175C96.8785 208.404 97.1356 207.89 97.1356 207.119L135.957 219.197C135.957 219.968 135.957 220.481 135.7 220.995ZM434.702 219.967C434.445 219.454 434.445 218.94 434.188 218.426L473.01 206.091C473.267 206.862 473.524 207.376 473.524 208.147L434.702 219.967ZM137.243 216.37L98.6782 203.521C98.9353 202.75 99.1924 202.237 99.4495 201.466L138.014 214.828C137.5 215.342 137.243 215.856 137.243 216.37ZM433.16 215.342C432.903 214.828 432.903 214.314 432.646 213.8L470.953 200.181C471.21 200.695 471.467 201.466 471.724 201.98L433.16 215.342ZM138.785 211.744L100.478 197.611C100.735 196.84 100.992 196.326 101.249 195.555L139.299 210.203C139.042 210.717 139.042 211.231 138.785 211.744ZM431.617 210.717C431.36 210.203 431.36 209.689 431.103 209.175L469.153 194.27C469.41 194.784 469.667 195.555 469.924 196.069L431.617 210.717ZM140.585 207.376L102.792 191.958C103.049 191.444 103.306 190.673 103.563 190.159L141.099 205.834C140.842 206.348 140.842 206.862 140.585 207.376ZM429.817 206.348C429.56 205.834 429.303 205.32 429.303 204.806L466.839 188.874C467.096 189.388 467.353 190.159 467.611 190.673L429.817 206.348ZM142.384 202.751L105.106 186.304C105.363 185.79 105.62 185.02 105.877 184.506L142.899 201.466C142.899 201.723 142.642 202.237 142.384 202.751ZM428.018 201.723C427.761 201.209 427.504 200.695 427.246 200.181L464.268 182.964C464.525 183.478 464.783 184.249 465.04 184.763L428.018 201.723ZM144.441 198.382L107.677 180.651C107.934 180.137 108.191 179.366 108.705 178.852L145.213 196.84C144.955 197.354 144.698 197.868 144.441 198.382ZM425.961 197.354C425.704 196.84 425.447 196.326 425.19 195.812L461.697 177.567C461.954 178.081 462.212 178.852 462.726 179.366L425.961 197.354ZM146.755 194.014L110.505 175.255C110.762 174.741 111.019 173.97 111.533 173.456L147.526 192.729C147.012 193.243 146.755 193.5 146.755 194.014ZM423.647 193.243C423.39 192.729 423.133 192.215 422.876 191.701L458.612 172.171C458.869 172.685 459.126 173.456 459.641 173.97L423.647 193.243ZM148.812 189.902L113.333 169.858C113.59 169.344 114.104 168.573 114.361 168.06L149.84 188.36C149.583 188.874 149.326 189.388 148.812 189.902ZM421.333 188.874C421.076 188.36 420.819 187.846 420.562 187.589L455.784 167.032C456.041 167.546 456.555 168.316 456.812 168.83L421.333 188.874ZM151.383 185.533L116.418 164.462C116.675 163.948 117.189 163.177 117.446 162.663L152.154 183.992C151.897 184.763 151.64 185.277 151.383 185.533ZM419.02 184.763C418.762 184.249 418.505 183.735 418.248 183.478L452.699 161.892C452.956 162.406 453.47 162.92 453.727 163.691L419.02 184.763ZM153.954 181.422L119.76 159.323C120.017 158.809 120.531 158.295 120.788 157.524L154.725 179.88C154.468 180.651 154.211 181.165 153.954 181.422ZM416.449 180.651C416.191 180.137 415.934 179.623 415.677 179.366L449.614 156.753C449.871 157.267 450.385 157.781 450.642 158.552L416.449 180.651ZM156.525 177.567L123.102 154.44C123.359 153.926 123.874 153.412 124.388 152.898L157.81 176.283C157.296 176.54 157.039 177.053 156.525 177.567ZM413.62 176.797C413.363 176.283 413.106 176.026 412.592 175.512L445.757 151.87C446.272 152.384 446.529 152.898 447.043 153.412L413.62 176.797ZM159.353 173.456L126.445 149.301C126.959 148.787 127.216 148.273 127.73 147.759L160.381 172.171C160.124 172.685 159.867 173.199 159.353 173.456ZM410.792 172.685C410.535 172.171 410.021 171.914 409.764 171.4L442.158 146.731C442.672 147.245 442.929 147.759 443.444 148.273L410.792 172.685ZM162.438 169.601L130.301 144.418C130.815 143.904 131.072 143.39 131.586 142.876L163.466 168.316C162.952 168.83 162.695 169.344 162.438 169.601ZM407.964 169.087C407.707 168.573 407.193 168.316 406.936 167.803L438.559 142.106C439.073 142.619 439.33 143.133 439.844 143.647L407.964 169.087ZM165.523 166.004L134.157 139.793C134.672 139.279 134.929 138.765 135.443 138.251L166.551 164.719C166.037 164.976 165.78 165.49 165.523 166.004ZM404.879 165.233C404.622 164.719 404.108 164.462 403.851 163.948L434.702 137.223C435.216 137.737 435.474 138.251 435.988 138.765L404.879 165.233ZM168.608 162.149L138.014 135.167C138.528 134.653 139.042 134.139 139.299 133.626L169.38 161.121C169.38 161.378 168.865 161.892 168.608 162.149ZM401.537 161.635C401.28 161.121 400.766 160.864 400.509 160.35L430.589 132.855C431.103 133.369 431.617 133.882 431.874 134.396L401.537 161.635ZM171.95 158.809L142.384 130.799C142.899 130.285 143.413 129.771 143.67 129.257L172.979 157.524C172.722 158.038 172.208 158.295 171.95 158.809ZM398.195 158.038C397.938 157.524 397.423 157.267 397.166 156.753L426.218 128.486C426.732 129 427.247 129.514 427.504 130.028L398.195 158.038ZM175.293 155.211L146.498 126.43C147.012 125.916 147.526 125.402 148.041 124.889L176.321 154.183C176.064 154.44 175.55 154.954 175.293 155.211ZM394.852 154.697C394.595 154.44 394.081 153.926 393.567 153.669L421.847 124.375C422.362 124.889 422.876 125.402 423.39 125.916L394.852 154.697ZM178.635 151.87L150.869 122.062C151.383 121.548 151.897 121.034 152.411 120.777L179.92 150.843C179.406 151.099 179.149 151.613 178.635 151.87ZM391.253 151.356C390.739 151.099 390.482 150.586 389.968 150.329L417.22 120.006C417.734 120.52 418.248 121.034 418.762 121.291L391.253 151.356ZM182.234 148.53L155.496 117.95C156.011 117.436 156.525 117.179 157.039 116.665L183.52 147.502C183.263 148.016 182.748 148.273 182.234 148.53ZM387.654 148.016C387.14 147.759 386.882 147.245 386.368 146.988L412.849 115.895C413.363 116.408 413.878 116.665 414.392 117.179L387.654 148.016ZM186.091 145.446L160.124 114.096C160.638 113.582 161.152 113.325 161.667 112.811L187.376 144.418C186.862 144.932 186.348 145.189 186.091 145.446ZM384.054 144.932C383.54 144.675 383.283 144.161 382.769 143.904L408.221 112.04C408.736 112.554 409.25 112.811 409.764 113.325L384.054 144.932ZM189.69 142.363L164.752 110.241C165.266 109.727 165.78 109.47 166.294 108.956L190.976 141.335C190.718 141.849 190.204 142.106 189.69 142.363ZM380.198 141.849C379.684 141.592 379.427 141.078 378.913 140.821L403.337 108.185C403.851 108.699 404.365 108.956 404.879 109.47L380.198 141.849ZM193.547 139.536L169.637 106.644C170.151 106.13 170.665 105.873 171.179 105.359L195.089 138.765C194.575 139.022 194.061 139.279 193.547 139.536ZM376.342 139.022C375.827 138.765 375.57 138.508 375.056 137.994L398.452 104.588C398.966 105.102 399.48 105.359 399.994 105.873L376.342 139.022ZM197.66 136.709L174.779 103.046C175.293 102.789 175.807 102.275 176.578 102.018L199.203 135.938C198.431 136.195 198.174 136.452 197.66 136.709ZM372.485 136.195C371.971 135.938 371.714 135.681 371.2 135.424L393.567 101.247C394.081 101.504 394.595 102.018 395.367 102.275L372.485 136.195ZM201.774 134.139L179.663 99.7054C180.178 99.4485 180.692 98.9345 181.463 98.6776L203.059 133.369C202.545 133.626 202.031 133.882 201.774 134.139ZM368.372 133.626C367.857 133.369 367.343 133.112 367.086 132.855L388.425 98.1636C388.939 98.4206 389.711 98.9345 390.225 99.1915L368.372 133.626ZM205.887 131.57L185.062 96.6218C185.577 96.3648 186.348 95.8509 186.862 95.5939L207.43 130.799C206.658 131.056 206.144 131.313 205.887 131.57ZM364.258 131.056C363.744 130.799 363.23 130.542 362.973 130.285L383.283 94.823C383.797 95.08 384.569 95.5939 385.083 95.8509L364.258 131.056ZM210.001 129.257L190.204 93.5382C190.718 93.2812 191.49 92.7672 192.004 92.5103L211.286 128.486C210.772 128.743 210.515 129 210.001 129.257ZM359.887 128.743C359.373 128.486 358.859 128.229 358.345 127.972L377.37 91.9963C377.884 92.2533 378.655 92.5103 379.17 93.0242L359.887 128.743ZM214.114 126.944L195.603 90.7115C196.117 90.4545 196.889 90.1975 197.403 89.6836L215.657 126.173C215.143 126.43 214.628 126.687 214.114 126.944ZM355.774 126.43C355.26 126.173 354.746 125.916 354.231 125.659L372.228 89.1697C372.742 89.4266 373.514 89.6836 374.028 90.1975L355.774 126.43ZM218.485 124.889L201.002 88.1418C201.516 87.8848 202.288 87.6278 202.802 87.3709L219.77 124.375C219.513 124.375 218.999 124.632 218.485 124.889ZM351.403 124.375C350.889 124.118 350.375 123.861 349.861 123.604L366.572 86.6C367.086 86.8569 367.857 87.1139 368.372 87.3709L351.403 124.375ZM222.855 122.833L206.658 85.5721C207.173 85.3151 207.944 85.0581 208.458 84.8012L224.398 122.319C223.884 122.319 223.37 122.576 222.855 122.833ZM346.776 122.319C346.261 122.062 345.747 121.805 345.233 121.805L360.916 84.2872C361.43 84.5442 362.201 84.8012 362.715 85.0581L346.776 122.319ZM227.483 121.034L212.314 83.2593C212.829 83.0024 213.6 82.7454 214.114 82.4884L228.769 120.52C228.254 120.52 227.74 120.777 227.483 121.034ZM342.405 120.52C341.891 120.263 341.377 120.006 340.862 120.006L355.26 81.9745C355.774 82.2315 356.545 82.4884 357.059 82.7454L342.405 120.52ZM231.854 119.235L217.971 80.9466C218.485 80.6896 219.256 80.4327 219.77 80.1757L233.396 118.721C232.882 118.978 232.368 118.978 231.854 119.235ZM337.777 118.978C337.263 118.721 336.749 118.721 336.235 118.464L349.604 79.9187C350.118 80.1757 350.889 80.4327 351.403 80.6896L337.777 118.978ZM236.482 117.693L223.627 78.8908C224.141 78.6339 224.912 78.3769 225.683 78.3769L238.024 117.179C237.51 117.436 236.996 117.436 236.482 117.693ZM333.149 117.436C332.635 117.179 332.121 117.179 331.607 116.922L343.69 77.863C344.462 78.1199 344.976 78.3769 345.747 78.3769L333.149 117.436ZM241.109 116.152L229.54 77.0921C230.311 76.8351 230.825 76.8351 231.597 76.5781L242.652 115.895C242.138 115.895 241.623 116.152 241.109 116.152ZM328.522 115.895C328.008 115.638 327.493 115.638 326.979 115.381L337.777 76.0642C338.548 76.3211 339.063 76.3211 339.834 76.5781L328.522 115.895ZM245.737 114.867L235.453 75.5502C236.224 75.2933 236.739 75.2933 237.51 75.0363L247.537 114.61C246.765 114.61 246.251 114.867 245.737 114.867ZM323.894 114.61C323.38 114.353 322.866 114.353 322.351 114.353L331.864 74.7793C332.635 75.0363 333.149 75.0363 333.921 75.2933L323.894 114.61ZM250.365 113.839L241.366 74.0084C242.138 73.7514 242.652 73.7514 243.423 73.4945L252.164 113.325C251.393 113.582 250.879 113.582 250.365 113.839ZM319.266 113.582C318.752 113.582 318.238 113.325 317.724 113.325L326.208 73.4945C326.979 73.7514 327.493 73.7514 328.265 74.0084L319.266 113.582ZM255.249 112.811L247.537 72.7236C248.308 72.4666 248.822 72.4666 249.593 72.4666L257.049 112.554C256.278 112.554 255.764 112.811 255.249 112.811ZM314.639 112.554C314.124 112.554 313.61 112.297 313.096 112.297L320.295 72.2096C321.066 72.2096 321.58 72.4666 322.351 72.4666L314.639 112.554ZM259.877 112.04L253.193 71.6957C253.964 71.6957 254.478 71.4387 255.249 71.4387L261.42 111.783C260.906 111.783 260.391 111.783 259.877 112.04ZM309.754 111.783C309.24 111.783 308.725 111.526 308.211 111.526L314.124 71.1817C314.896 71.1817 315.41 71.4387 316.181 71.4387L309.754 111.783ZM264.762 111.269L259.363 70.9248C260.134 70.9248 260.648 70.6678 261.42 70.6678L266.305 111.012C265.79 111.012 265.276 111.269 264.762 111.269ZM304.869 111.012C304.355 111.012 303.841 111.012 303.326 110.755L307.954 70.1539C308.725 70.1539 309.24 70.4108 310.011 70.4108L304.869 111.012ZM269.39 110.755L265.276 70.1539C266.048 70.1539 266.562 69.8969 267.333 69.8969L270.932 110.498C270.675 110.498 269.904 110.498 269.39 110.755ZM300.241 110.498C299.727 110.498 299.213 110.498 298.699 110.241L302.041 69.6399C302.812 69.6399 303.326 69.6399 304.098 69.8969L300.241 110.498ZM274.275 110.241L271.447 69.6399C272.218 69.6399 272.732 69.6399 273.503 69.3829L275.817 109.984C275.303 110.241 274.789 110.241 274.275 110.241ZM295.356 110.241C294.842 110.241 294.328 110.241 293.814 110.241L295.871 69.6399C296.642 69.6399 297.156 69.6399 297.927 69.6399L295.356 110.241ZM279.159 109.984L277.617 69.3829C278.388 69.3829 278.902 69.3829 279.674 69.3829L280.959 110.241C280.188 109.984 279.674 109.984 279.159 109.984ZM290.472 109.984C289.957 109.984 289.443 109.984 288.929 109.984L289.7 69.126C290.472 69.126 290.986 69.126 291.757 69.126L290.472 109.984ZM284.044 109.984L283.787 69.126C284.301 69.126 285.073 69.126 285.587 69.126H285.844L285.587 109.984H285.33C284.816 109.984 284.558 109.984 284.044 109.984Z" fill="#3F405D"/>
<path d="M285.33 416.291C276.074 416.291 266.819 415.52 257.821 413.721L262.962 386.225C270.418 387.51 277.874 388.281 285.587 388.281C313.61 388.281 339.834 379.03 361.687 361.556L379.17 383.399C352.689 404.47 319.266 416.291 285.33 416.291ZM252.164 412.436C209.744 402.928 173.493 375.176 152.925 336.63L177.607 323.525C194.318 354.875 223.884 377.488 258.335 385.197L252.164 412.436ZM383.54 379.801L365.287 358.729C392.282 335.602 407.707 301.682 407.707 266.22V265.963H435.731V266.22C435.474 309.905 416.449 351.277 383.54 379.801ZM150.097 331.491C140.328 310.933 135.186 289.091 135.186 266.22C135.186 245.406 139.299 225.362 147.526 206.603L173.236 217.653C166.552 233.071 163.209 249.26 163.209 266.22C163.209 284.722 167.323 302.71 175.293 319.413L150.097 331.491ZM407.45 261.081C405.908 225.619 389.196 192.727 361.43 170.37L378.913 148.528C413.106 175.767 433.674 216.368 435.474 259.796L407.45 261.081ZM175.293 213.284L150.097 201.207C169.122 161.89 204.088 132.596 246.251 121.289L253.45 148.271C219.256 157.522 190.719 181.163 175.293 213.284ZM357.574 167.544C336.492 152.125 311.554 143.902 285.33 143.902C276.074 143.902 266.819 144.93 257.821 146.986L251.65 119.747C262.705 117.177 274.018 115.893 285.33 115.893C317.467 115.893 348.318 125.914 374.028 144.93L357.574 167.544Z" fill="#3F405D"/>
<path d="M218.999 167.802L238.795 197.097C240.338 196.069 241.881 195.041 243.68 194.013L225.941 163.69C223.627 164.975 221.313 166.517 218.999 167.802ZM239.31 195.555L220.799 168.316C222.341 167.288 223.884 166.26 225.684 165.232L242.138 193.756C241.109 194.27 240.081 194.784 239.31 195.555Z" fill="#3F405D"/>
<path d="M229.54 161.635L246.251 192.728C248.051 191.957 249.593 190.929 251.393 190.158L236.996 158.037C234.425 159.065 231.854 160.35 229.54 161.635ZM246.765 191.186L231.34 162.149C232.882 161.378 234.682 160.35 236.482 159.579L250.108 189.644C248.822 190.158 247.794 190.672 246.765 191.186Z" fill="#3F405D"/>
<path d="M209.229 175.254L231.854 202.235C233.396 200.951 234.939 199.923 236.481 198.638L215.657 170.371C213.6 171.913 211.286 173.455 209.229 175.254ZM232.111 200.694L211.029 175.51C212.572 174.226 213.857 173.198 215.4 172.17L234.682 198.895C233.91 199.152 233.139 199.923 232.111 200.694Z" fill="#3F405D"/>
<path d="M252.164 152.383L262.191 186.303C263.991 185.789 265.79 185.275 267.59 185.018L260.134 150.584C257.306 151.098 254.735 151.612 252.164 152.383ZM262.705 184.761L253.45 153.154C255.25 152.64 257.049 152.126 258.849 151.869L265.79 183.99C265.019 184.247 263.991 184.504 262.705 184.761Z" fill="#3F405D"/>
<path d="M263.991 149.557L270.418 184.248C272.218 183.991 274.275 183.734 276.074 183.477L272.218 148.272C269.39 148.786 266.562 149.043 263.991 149.557ZM271.189 182.963L265.276 150.585C267.076 150.328 268.876 150.071 270.932 149.814L274.532 182.45C273.503 182.706 272.475 182.706 271.189 182.963Z" fill="#3F405D"/>
<path d="M240.595 156.495L253.964 189.13C255.764 188.359 257.563 187.845 259.363 187.074L248.308 153.411C245.737 154.439 243.166 155.467 240.595 156.495ZM254.478 187.588L242.138 157.009C243.937 156.238 245.737 155.724 247.537 154.953L257.821 186.303C256.792 186.817 255.764 187.074 254.478 187.588Z" fill="#3F405D"/>
<path d="M192.261 192.727L220.027 214.569C221.313 213.028 222.341 211.486 223.627 210.201L197.66 186.56C195.86 188.615 194.061 190.671 192.261 192.727ZM222.084 210.458C221.313 211.229 220.542 212.257 220.027 213.028L194.318 192.727C195.603 191.185 196.632 189.9 197.917 188.358L222.084 210.458Z" fill="#3F405D"/>
<path d="M185.32 202.75L215.143 221.766C216.171 220.224 217.199 218.682 218.485 217.14L189.947 195.812C188.405 198.124 186.862 200.437 185.32 202.75ZM216.685 217.14C215.914 218.168 215.4 218.939 214.886 219.967L187.119 202.236C188.148 200.694 189.176 199.152 190.204 197.61L216.685 217.14Z" fill="#3F405D"/>
<path d="M200.488 183.476L225.94 208.146C227.226 206.861 228.769 205.576 230.054 204.291L206.401 178.08C204.344 179.622 202.288 181.678 200.488 183.476ZM225.683 206.347L202.031 183.476C203.316 182.192 204.602 180.907 206.144 179.622L227.997 204.034C227.226 204.805 226.455 205.576 225.683 206.347Z" fill="#3F405D"/>
<path d="M393.824 218.425L361.43 232.558C362.201 234.357 362.972 236.156 363.487 237.955L396.652 225.877C396.138 223.564 395.109 220.995 393.824 218.425ZM363.23 233.329L393.31 219.967C394.081 221.765 394.852 223.307 395.366 225.106L364.515 236.413C364.001 235.385 363.487 234.357 363.23 233.329Z" fill="#3F405D"/>
<path d="M398.195 229.988L364.515 240.781C365.029 242.58 365.544 244.379 366.058 246.177L400.509 237.697C399.737 235.128 398.966 232.558 398.195 229.988ZM366.058 241.552L397.423 231.53C397.938 233.329 398.452 235.128 398.966 236.926L367.086 244.893C366.829 243.608 366.572 242.58 366.058 241.552Z" fill="#3F405D"/>
<path d="M368.629 263.138L403.851 261.853C403.851 259.283 403.594 256.457 403.337 253.63L368.115 257.227C368.372 259.283 368.372 261.082 368.629 263.138ZM402.308 255.172C402.565 256.971 402.565 259.026 402.822 260.825L369.914 262.11C369.914 261.082 369.657 259.797 369.657 258.769L402.308 255.172Z" fill="#3F405D"/>
<path d="M402.822 249.775C402.565 247.205 402.051 244.378 401.537 241.809L366.829 249.004C367.343 250.803 367.6 252.858 367.857 254.657L402.822 249.775ZM400.509 243.093C400.766 244.892 401.28 246.691 401.537 248.747L368.886 253.372C368.629 252.344 368.629 251.06 368.372 250.032L400.509 243.093Z" fill="#3F405D"/>
<path d="M323.123 340.228L339.32 371.578C341.634 370.294 344.205 369.009 346.518 367.724L328.265 337.401C326.465 338.429 324.922 339.457 323.123 340.228ZM339.834 370.037L324.922 340.742C325.951 340.228 326.979 339.714 327.751 339.2L344.719 367.467C343.176 368.238 341.634 369.266 339.834 370.037Z" fill="#3F405D"/>
<path d="M298.956 348.194L304.612 383.142C307.183 382.628 310.011 382.114 312.582 381.6L304.355 347.166C302.812 347.423 300.755 347.937 298.956 348.194ZM305.64 381.6L300.241 349.222C301.27 348.965 302.555 348.708 303.583 348.451L311.039 380.572C309.24 381.086 307.44 381.343 305.64 381.6Z" fill="#3F405D"/>
<path d="M315.41 343.826L328.265 376.719C330.836 375.691 333.407 374.663 335.72 373.635L320.809 341.514C319.009 342.285 317.21 343.056 315.41 343.826ZM328.779 375.177L316.952 344.597C317.981 344.083 319.009 343.826 320.038 343.312L333.921 373.121C332.378 373.635 330.579 374.406 328.779 375.177Z" fill="#3F405D"/>
<path d="M307.44 346.396L316.695 380.573C319.266 379.803 321.837 379.032 324.408 378.261L312.839 344.854C311.039 345.368 309.24 345.882 307.44 346.396ZM317.467 379.032L308.725 347.167C309.754 346.91 310.782 346.396 311.811 346.139L322.609 377.233C321.066 378.004 319.266 378.518 317.467 379.032Z" fill="#3F405D"/>
<path d="M368.629 265.965C368.629 268.021 368.629 270.077 368.372 271.875L403.594 274.188C403.851 271.618 403.851 268.792 403.851 265.965V265.708H368.629V265.965ZM402.565 272.903L369.657 270.59C369.657 269.306 369.657 268.278 369.657 266.993H402.565C402.822 269.049 402.565 271.104 402.565 272.903Z" fill="#3F405D"/>
<path d="M367.343 280.356L402.308 286.266C402.822 283.696 403.079 280.869 403.337 278.3L368.114 274.702C367.857 276.501 367.6 278.557 367.343 280.356ZM369.143 275.987L401.794 279.328C401.537 281.126 401.28 282.925 401.023 284.981L368.629 279.328C368.886 278.3 369.143 277.272 369.143 275.987Z" fill="#3F405D"/>
<path d="M290.472 349.223L292.528 384.428C295.099 384.171 297.927 383.914 300.498 383.657L295.871 348.709C294.328 348.966 292.271 348.966 290.472 349.223ZM293.814 383.143L291.757 350.251C292.785 350.251 294.071 349.994 295.099 349.994L299.213 382.629C297.413 382.886 295.613 382.886 293.814 383.143Z" fill="#3F405D"/>
<path d="M285.33 349.222C284.044 349.222 283.016 349.222 281.73 349.222L280.188 384.427C281.73 384.427 283.53 384.427 285.072 384.427C286.101 384.427 287.129 384.427 288.158 384.427L287.129 348.965C286.872 349.222 286.101 349.222 285.33 349.222ZM285.33 383.399C284.044 383.399 282.759 383.399 281.473 383.399L282.759 350.507C283.53 350.507 284.301 350.507 285.072 350.507C285.33 350.507 285.844 350.507 286.101 350.507L286.872 383.399C286.615 383.399 286.101 383.399 285.33 383.399Z" fill="#3F405D"/>
<path d="M285.33 475.653C255.249 475.653 226.455 469.486 199.203 457.151L202.031 450.984C228.254 462.804 256.278 468.715 285.33 468.715C397.166 468.715 488.178 377.747 488.178 265.965V265.451H494.863V265.965C494.863 321.985 473.01 374.407 433.417 413.98C394.081 453.81 341.377 475.653 285.33 475.653ZM180.692 447.643C149.326 429.655 123.102 403.444 104.591 372.351C85.5663 340.229 75.5395 303.483 75.5395 265.965C75.5395 232.302 83.7666 198.639 99.1923 169.087C114.104 140.307 136.214 115.124 162.438 96.1077L166.294 101.504C113.59 139.536 81.9669 201.209 81.9669 265.965C81.9669 338.174 120.788 405.5 183.52 441.733L180.692 447.643ZM487.15 245.407C476.609 141.591 389.968 63.2155 285.33 63.2155C249.593 63.2155 214.371 72.7234 183.52 90.4544L180.177 84.5441C212.057 66.0422 248.308 56.2773 285.33 56.2773C337.52 56.2773 387.654 75.5501 426.218 110.755C464.525 145.703 488.692 193.242 493.834 244.38L487.15 245.407Z" fill="#3F405D"/>
<path d="M187.119 323.012C177.092 305.795 171.693 286.008 171.693 265.964C171.693 247.977 176.064 229.989 184.291 214.057L192.004 218.168C184.291 232.815 180.435 249.518 180.435 265.964C180.435 284.466 185.319 302.711 194.575 318.643L187.119 323.012ZM373.513 209.431C364.515 195.298 352.432 183.734 337.52 175.254C321.58 166.003 303.583 161.378 285.33 161.378H285.073V152.641H285.33C305.126 152.641 324.665 157.78 341.891 167.802C357.574 176.796 370.943 189.644 380.712 204.806L373.513 209.431Z" fill="#3F405D"/>
<path d="M184.291 75.8072L150.097 11.3076C149.583 11.5646 148.812 12.0785 148.298 12.3355L183.006 76.5781C183.52 76.3211 184.034 76.0641 184.291 75.8072Z" fill="#3F405D"/>
<path d="M160.638 90.4529L118.217 31.0928C117.703 31.6067 117.189 31.8637 116.418 32.3776L159.096 91.4808C159.61 91.2238 160.124 90.7099 160.638 90.4529Z" fill="#3F405D"/>
<path d="M156.782 93.2806L113.076 34.6914C112.561 35.2053 112.047 35.4623 111.533 35.9763L155.496 94.3085C156.01 93.7946 156.268 93.5376 156.782 93.2806Z" fill="#3F405D"/>
<path d="M168.351 85.3152L128.501 24.1562C127.987 24.4132 127.216 24.9272 126.702 25.1841L166.809 86.0861C167.323 85.8291 167.837 85.5721 168.351 85.3152Z" fill="#3F405D"/>
<path d="M180.178 78.1183L144.698 14.3896C144.184 14.6466 143.413 15.1606 142.899 15.4175L179.149 78.8892C179.406 78.6322 179.921 78.3752 180.178 78.1183Z" fill="#3F405D"/>
<path d="M176.321 80.4313L139.042 17.4736C138.528 17.7306 137.757 18.2445 137.243 18.5015L174.778 81.2023C175.293 80.9453 175.807 80.6883 176.321 80.4313Z" fill="#3F405D"/>
<path d="M152.925 96.1072L108.191 38.5459C107.676 39.0598 107.162 39.3168 106.648 39.8307L151.897 97.1351C152.154 96.8781 152.668 96.3642 152.925 96.1072Z" fill="#3F405D"/>
<path d="M172.208 82.7444L133.9 20.5576C133.386 20.8146 132.615 21.3285 132.101 21.5855L170.922 83.5153C171.436 83.2584 171.693 83.0014 172.208 82.7444Z" fill="#3F405D"/>
<path d="M164.238 87.8841L123.102 27.4961C122.588 28.01 121.817 28.267 121.303 28.7809L162.695 88.912C163.466 88.398 163.981 88.1411 164.238 87.8841Z" fill="#3F405D"/>
<path d="M132.101 114.866L80.1674 63.4717C79.6532 63.9856 79.139 64.4996 78.6248 65.0135L130.815 115.894C131.329 115.637 131.587 115.123 132.101 114.866Z" fill="#3F405D"/>
<path d="M149.326 98.9338L103.306 42.4004C102.792 42.9143 102.278 43.1713 101.763 43.6852L148.298 99.9617C148.555 99.7048 149.069 99.4478 149.326 98.9338Z" fill="#3F405D"/>
<path d="M135.443 111.525L84.5379 59.1035C84.0237 59.6175 83.5096 60.1314 82.9954 60.6453L134.157 112.81C134.672 112.296 134.929 111.782 135.443 111.525Z" fill="#3F405D"/>
<path d="M125.673 121.547L71.426 72.4658C70.9119 72.9798 70.3977 73.4937 70.1406 74.0076L124.645 122.575C124.902 122.318 125.159 122.061 125.673 121.547Z" fill="#3F405D"/>
<path d="M128.758 118.206L75.7966 68.0967C75.2825 68.6106 74.7683 69.1246 74.2541 69.6385L127.73 119.491C127.987 118.977 128.501 118.463 128.758 118.206Z" fill="#3F405D"/>
<path d="M145.727 102.016L98.4211 46.5107C97.9069 47.0247 97.3928 47.5386 96.8786 47.7956L144.698 103.044C144.955 102.787 145.47 102.273 145.727 102.016Z" fill="#3F405D"/>
<path d="M142.127 105.101L93.7933 50.623C93.2791 51.137 92.765 51.6509 92.2508 51.9079L141.099 106.129C141.356 105.872 141.87 105.358 142.127 105.101Z" fill="#3F405D"/>
<path d="M122.588 125.144L67.3126 77.3477C66.7984 77.8616 66.5413 78.3755 66.0271 78.8895L121.56 126.429C121.817 125.915 122.074 125.401 122.588 125.144Z" fill="#3F405D"/>
<path d="M188.405 73.7499L155.753 8.47949C155.239 8.73646 154.468 8.99343 153.954 9.50737L187.376 74.5209C187.633 74.0069 188.147 73.7499 188.405 73.7499Z" fill="#3F405D"/>
<path d="M138.785 108.184L89.1657 54.7344C88.6516 55.2483 88.1373 55.7623 87.6232 56.2762L137.757 109.469C138.014 108.955 138.271 108.698 138.785 108.184Z" fill="#3F405D"/>
<path d="M73.74 225.106L2.01029 211.229C2.01029 212 1.75319 212.514 1.49609 213.285L73.2258 226.648C73.4829 226.134 73.74 225.62 73.74 225.106Z" fill="#3F405D"/>
<path d="M79.3961 202.493L9.72316 180.907C9.46607 181.678 9.20897 182.192 9.20897 182.963L79.139 204.035C79.139 203.521 79.139 203.007 79.3961 202.493Z" fill="#3F405D"/>
<path d="M72.9686 229.731L0.981823 217.396C0.981823 218.167 0.724731 218.681 0.724731 219.452L72.7115 231.273C72.7115 230.759 72.7115 230.245 72.9686 229.731Z" fill="#3F405D"/>
<path d="M78.1105 206.861L7.92337 186.817C7.66627 187.588 7.40917 188.359 7.40917 188.873L77.8534 208.403C77.8534 207.889 77.8534 207.375 78.1105 206.861Z" fill="#3F405D"/>
<path d="M75.7967 215.856L4.83831 198.896C4.58121 199.666 4.58121 200.18 4.32411 200.951L75.5396 217.397C75.5396 216.883 75.5396 216.369 75.7967 215.856Z" fill="#3F405D"/>
<path d="M74.7684 220.48L3.29576 205.062C3.03867 205.832 3.03867 206.346 2.78157 207.117L74.2542 222.022C74.5113 221.508 74.5113 220.994 74.7684 220.48Z" fill="#3F405D"/>
<path d="M76.8251 211.486L6.12378 192.984C5.86669 193.755 5.86668 194.269 5.60959 195.04L76.3109 213.028C76.568 212.514 76.8251 212 76.8251 211.486Z" fill="#3F405D"/>
<path d="M105.363 147.502L44.431 107.157C44.1739 107.671 43.6597 108.442 43.4026 108.956L104.591 148.786C104.848 148.272 105.106 148.015 105.363 147.502Z" fill="#3F405D"/>
<path d="M102.792 151.355L41.0888 112.553C40.8317 113.067 40.3175 113.838 40.0604 114.352L102.021 152.897C102.278 152.383 102.535 151.869 102.792 151.355Z" fill="#3F405D"/>
<path d="M100.478 155.468L37.7465 117.95C37.4894 118.464 36.9752 119.235 36.7181 119.749L99.7066 156.753C99.9637 156.239 100.221 155.982 100.478 155.468Z" fill="#3F405D"/>
<path d="M98.1641 159.578L34.6614 123.346C34.4043 123.86 33.8902 124.631 33.6331 125.144L97.3928 160.863C97.6499 160.349 97.907 159.835 98.1641 159.578Z" fill="#3F405D"/>
<path d="M93.5363 167.802L28.4911 134.396C28.234 134.909 27.9769 135.68 27.4627 136.194L92.5079 169.087C93.0221 168.573 93.2792 168.316 93.5363 167.802Z" fill="#3F405D"/>
<path d="M84.0237 189.131L15.8933 162.92C15.6362 163.691 15.3792 164.205 15.1221 164.976L83.5095 190.673C83.7666 190.159 83.7666 189.645 84.0237 189.131Z" fill="#3F405D"/>
<path d="M85.8234 184.761L18.2072 157.266C17.9501 158.037 17.693 158.55 17.436 159.321L85.3092 186.303C85.3092 185.789 85.5663 185.275 85.8234 184.761Z" fill="#3F405D"/>
<path d="M82.4812 193.499L13.8367 168.83C13.5796 169.601 13.3225 170.115 13.0654 170.886L81.967 195.041C81.967 194.527 82.2241 194.013 82.4812 193.499Z" fill="#3F405D"/>
<path d="M95.8501 163.69L31.5762 128.999C31.3191 129.513 30.8049 130.284 30.5478 130.798L95.0788 165.232C95.3359 164.461 95.593 163.947 95.8501 163.69Z" fill="#3F405D"/>
<path d="M87.6231 180.394L20.5211 151.356C20.264 151.87 20.0069 152.641 19.7498 153.412L86.8518 181.936C87.1089 181.422 87.366 180.908 87.6231 180.394Z" fill="#3F405D"/>
<path d="M80.9386 197.868L11.7798 174.74C11.5227 175.511 11.2657 176.025 11.0086 176.796L80.4244 199.409C80.4244 198.895 80.6815 198.382 80.9386 197.868Z" fill="#3F405D"/>
<path d="M89.4228 176.282L23.0921 145.702C22.835 146.216 22.5779 146.987 22.3208 147.501L88.9086 177.566C89.1657 177.052 89.1657 176.539 89.4228 176.282Z" fill="#3F405D"/>
<path d="M91.4796 171.913L25.9202 140.049C25.6631 140.563 25.406 141.334 24.8918 141.848L90.7083 173.455C90.9654 172.941 91.2225 172.427 91.4796 171.913Z" fill="#3F405D"/>
<path d="M477.38 168.316L542.425 135.167C542.168 134.653 541.911 133.882 541.397 133.368L476.609 167.031C476.866 167.288 477.123 167.802 477.38 168.316Z" fill="#3F405D"/>
<path d="M475.323 164.205L539.597 129.514C539.34 129 538.826 128.229 538.569 127.715L474.552 162.92C474.809 163.177 475.066 163.691 475.323 164.205Z" fill="#3F405D"/>
<path d="M473.01 160.092L536.512 124.116C536.255 123.602 535.741 122.831 535.484 122.317L472.238 158.807C472.495 159.064 472.752 159.578 473.01 160.092Z" fill="#3F405D"/>
<path d="M470.696 155.981L533.427 118.721C533.17 118.207 532.656 117.436 532.399 116.922L469.924 154.697C470.182 154.953 470.439 155.467 470.696 155.981Z" fill="#3F405D"/>
<path d="M468.125 151.869L530.085 113.066C529.828 112.552 529.314 111.782 529.056 111.268L467.353 150.584C467.611 151.098 467.868 151.612 468.125 151.869Z" fill="#3F405D"/>
<path d="M451.928 129.256L508.232 82.744C507.717 82.23 507.46 81.7161 506.946 81.2021L450.899 127.971C451.156 128.485 451.413 128.742 451.928 129.256Z" fill="#3F405D"/>
<path d="M465.811 148.014L526.742 107.927C526.485 107.413 525.971 106.899 525.714 106.128L465.04 146.729C465.04 147.243 465.297 147.5 465.811 148.014Z" fill="#3F405D"/>
<path d="M448.843 125.658L504.118 78.119C503.604 77.605 503.09 77.0911 502.833 76.5771L447.814 124.631C448.071 124.888 448.328 125.145 448.843 125.658Z" fill="#3F405D"/>
<path d="M442.415 118.719L495.634 68.6102C495.12 68.0962 494.605 67.5823 494.091 67.0684L441.13 117.435C441.901 117.948 442.158 118.205 442.415 118.719Z" fill="#3F405D"/>
<path d="M445.758 122.061L500.005 73.2371C499.491 72.7232 498.976 72.2093 498.719 71.6953L444.729 120.777C444.986 121.291 445.243 121.805 445.758 122.061Z" fill="#3F405D"/>
<path d="M454.756 132.854L512.088 87.6268C511.574 87.1128 511.317 86.5989 510.803 86.085L453.727 131.569C453.985 132.083 454.499 132.597 454.756 132.854Z" fill="#3F405D"/>
<path d="M462.983 144.16L523.143 102.788C522.629 102.274 522.372 101.503 521.858 100.989L461.954 142.875C462.469 143.389 462.726 143.646 462.983 144.16Z" fill="#3F405D"/>
<path d="M457.584 136.451L515.945 92.5088C515.43 91.9948 515.173 91.4809 514.659 90.71L456.813 135.166C457.07 135.68 457.327 136.194 457.584 136.451Z" fill="#3F405D"/>
<path d="M439.33 115.38L491.521 64.243C491.006 63.7291 490.492 63.2151 489.978 62.7012L438.302 114.095C438.559 114.609 438.816 114.866 439.33 115.38Z" fill="#3F405D"/>
<path d="M500.776 262.624L573.791 261.596C573.791 260.825 573.791 260.311 573.791 259.54L500.776 261.082C500.776 261.596 500.776 262.11 500.776 262.624Z" fill="#3F405D"/>
<path d="M500.776 257.998L573.791 255.428C573.791 254.657 573.791 254.143 573.791 253.372L500.776 256.713C500.776 256.97 500.776 257.484 500.776 257.998Z" fill="#3F405D"/>
<path d="M500.519 253.372L573.534 249.004C573.534 248.233 573.534 247.719 573.277 246.948L500.519 251.831C500.519 252.345 500.519 252.859 500.519 253.372Z" fill="#3F405D"/>
<path d="M406.936 88.1415L448.328 28.0104C447.814 27.4965 447.043 27.2395 446.529 26.7256L405.65 87.3706C406.165 87.6275 406.422 87.8845 406.936 88.1415Z" fill="#3F405D"/>
<path d="M435.988 112.04L487.15 59.8748C486.636 59.3609 486.121 58.8469 485.607 58.333L434.959 111.012C435.217 111.269 435.474 111.526 435.988 112.04Z" fill="#3F405D"/>
<path d="M418.248 96.6205L463.24 39.3161C462.726 38.8022 462.212 38.5452 461.697 38.0312L416.963 95.8496C417.477 95.8496 417.991 96.1065 418.248 96.6205Z" fill="#3F405D"/>
<path d="M414.649 93.7939L458.612 35.4616C458.098 34.9477 457.584 34.6907 456.813 34.1768L413.363 92.766C413.878 93.0229 414.135 93.2799 414.649 93.7939Z" fill="#3F405D"/>
<path d="M422.105 99.4482L468.382 42.9147C467.868 42.4008 467.353 42.1438 466.839 41.6299L420.819 98.4203C421.076 98.9342 421.59 99.1912 422.105 99.4482Z" fill="#3F405D"/>
<path d="M410.792 90.9673L453.47 31.6071C452.956 31.0932 452.442 30.8362 451.671 30.3223L409.507 89.9394C410.021 90.1963 410.278 90.7103 410.792 90.9673Z" fill="#3F405D"/>
<path d="M432.646 108.697L482.522 55.5046C482.008 54.9906 481.494 54.4767 480.98 54.2197L431.36 107.927C431.874 107.927 432.131 108.44 432.646 108.697Z" fill="#3F405D"/>
<path d="M369.914 67.8401L398.709 0.770911C398.195 0.513941 397.423 0.25697 396.909 0L368.629 67.3262C369.143 67.5832 369.4 67.8401 369.914 67.8401Z" fill="#3F405D"/>
<path d="M429.046 105.615L477.894 51.1374C477.38 50.6234 476.866 50.1095 476.352 49.8525L428.018 104.587C428.275 104.844 428.789 105.358 429.046 105.615Z" fill="#3F405D"/>
<path d="M425.447 102.531L473.009 47.0251C472.495 46.5111 471.981 45.9972 471.467 45.7402L424.418 101.503C424.675 101.76 425.19 102.274 425.447 102.531Z" fill="#3F405D"/>
<path d="M378.655 71.6951L410.278 5.91069C409.764 5.65372 408.993 5.39675 408.479 4.88281L377.37 70.9242C377.627 71.4381 378.141 71.6951 378.655 71.6951Z" fill="#3F405D"/>
<path d="M382.769 74.0072L415.934 8.9937C415.42 8.73673 414.649 8.47976 414.135 7.96582L381.483 73.2363C381.741 73.4932 382.255 73.7502 382.769 74.0072Z" fill="#3F405D"/>
<path d="M386.883 76.0634L421.333 11.8208C420.819 11.5639 420.048 11.0499 419.534 10.793L385.597 75.2925C386.111 75.5495 386.368 75.8064 386.883 76.0634Z" fill="#3F405D"/>
<path d="M403.079 85.5706L442.929 24.4117C442.415 24.1547 441.901 23.6408 441.13 23.3838L401.794 84.7997C402.308 85.0567 402.565 85.3136 403.079 85.5706Z" fill="#3F405D"/>
<path d="M374.285 69.8956L404.365 3.34025C403.851 3.08328 403.079 2.82631 402.565 2.56934L372.999 69.3816C373.256 69.3816 373.77 69.6386 374.285 69.8956Z" fill="#3F405D"/>
<path d="M399.223 83.0007L437.787 21.0708C437.273 20.8139 436.502 20.2999 435.988 20.043L397.681 82.2298C398.195 82.4868 398.709 82.7437 399.223 83.0007Z" fill="#3F405D"/>
<path d="M395.11 80.6876L432.388 17.9869C431.874 17.7299 431.103 17.216 430.589 16.959L393.824 79.9167C394.081 80.1737 394.595 80.4306 395.11 80.6876Z" fill="#3F405D"/>
<path d="M390.996 78.3756L426.732 14.647C426.218 14.3901 425.447 13.8761 424.933 13.6191L389.454 77.3478C390.225 77.8617 390.482 78.1187 390.996 78.3756Z" fill="#3F405D"/>
<path d="M460.412 140.305L519.544 97.6484C519.03 97.1345 518.773 96.6205 518.258 95.8496L459.384 139.021C459.641 139.535 460.155 139.792 460.412 140.305Z" fill="#3F405D"/>
<path d="M494.606 318.643L565.307 336.631C565.564 335.86 565.564 335.346 565.821 334.575L494.863 317.358C494.606 317.615 494.606 318.129 494.606 318.643Z" fill="#3F405D"/>
<path d="M493.32 323.269L563.764 342.542C564.021 341.771 564.021 341.257 564.279 340.486L493.834 321.728C493.577 322.241 493.32 322.755 493.32 323.269Z" fill="#3F405D"/>
<path d="M497.434 305.023L569.163 318.129C569.421 317.358 569.421 316.844 569.421 316.073L497.434 303.481C497.691 303.995 497.434 304.509 497.434 305.023Z" fill="#3F405D"/>
<path d="M496.662 309.65L568.135 324.298C568.392 323.527 568.392 323.013 568.649 322.242L496.919 308.108C496.662 308.622 496.662 309.136 496.662 309.65Z" fill="#3F405D"/>
<path d="M495.634 314.275L566.85 330.464C567.107 329.694 567.107 329.18 567.364 328.409L496.148 312.733C495.891 313.247 495.634 313.761 495.634 314.275Z" fill="#3F405D"/>
<path d="M492.035 327.638L561.965 348.452C562.222 347.681 562.479 347.167 562.479 346.396L492.292 326.096C492.292 326.867 492.035 327.381 492.035 327.638Z" fill="#3F405D"/>
<path d="M489.207 336.632L558.108 360.53C558.365 359.759 558.622 359.245 558.88 358.474L489.721 335.09C489.464 335.604 489.207 336.118 489.207 336.632Z" fill="#3F405D"/>
<path d="M490.492 332.263L559.908 354.619C560.165 353.848 560.422 353.334 560.422 352.563L490.749 330.721C491.006 331.235 490.749 331.749 490.492 332.263Z" fill="#3F405D"/>
<path d="M500.262 281.895L573.02 287.035C573.02 286.264 573.02 285.75 573.277 284.979L500.519 280.354C500.519 280.867 500.519 281.381 500.262 281.895Z" fill="#3F405D"/>
<path d="M487.664 340.999L556.051 366.439C556.309 365.668 556.566 365.154 556.823 364.383L488.178 339.457C487.921 340.228 487.664 340.485 487.664 340.999Z" fill="#3F405D"/>
<path d="M498.205 300.398L570.192 311.962C570.192 311.191 570.449 310.677 570.449 309.906L498.205 298.856C498.462 299.37 498.205 299.884 498.205 300.398Z" fill="#3F405D"/>
<path d="M500.776 272.389L573.791 274.445C573.791 273.674 573.791 273.16 573.791 272.389L500.776 270.848C500.776 271.362 500.776 271.876 500.776 272.389Z" fill="#3F405D"/>
<path d="M574.048 265.708H501.033V265.965C501.033 266.479 501.033 266.993 501.033 267.507L574.048 268.021C574.048 267.25 574.048 266.736 574.048 265.965V265.708Z" fill="#3F405D"/>
<path d="M500.776 277.014L573.791 280.612C573.791 279.841 573.791 279.327 573.791 278.556L500.776 275.473C500.776 275.987 500.776 276.501 500.776 277.014Z" fill="#3F405D"/>
<path d="M500.005 286.522L572.763 293.204C572.763 292.433 572.763 291.919 573.02 291.148L500.262 284.98C500.005 285.494 500.005 286.008 500.005 286.522Z" fill="#3F405D"/>
<path d="M498.976 295.772L571.22 305.794C571.22 305.023 571.477 304.509 571.477 303.738L498.976 294.23C498.976 294.744 498.976 295.258 498.976 295.772Z" fill="#3F405D"/>
<path d="M499.49 291.147L571.991 299.37C571.991 298.599 572.249 298.085 572.249 297.315L499.748 289.605C499.49 290.119 499.49 290.633 499.49 291.147Z" fill="#3F405D"/>
<path d="M485.865 345.368L553.738 372.35C553.995 371.579 554.252 371.065 554.509 370.294L486.379 343.826C486.122 344.597 486.122 345.111 485.865 345.368Z" fill="#3F405D"/>
<path d="M478.152 362.586L543.454 395.478C543.711 394.964 543.968 394.193 544.482 393.679L478.923 361.558C478.666 361.558 478.409 362.072 478.152 362.586Z" fill="#3F405D"/>
<path d="M482.265 354.105L548.853 383.914C549.11 383.4 549.367 382.629 549.624 382.115L482.779 352.82C482.522 353.077 482.522 353.591 482.265 354.105Z" fill="#3F405D"/>
<path d="M480.208 358.474L546.282 389.825C546.539 389.311 546.796 388.54 547.31 387.769L480.98 356.933C480.722 357.447 480.465 357.961 480.208 358.474Z" fill="#3F405D"/>
<path d="M484.065 349.736L551.424 378.003C551.681 377.489 551.938 376.718 552.195 376.204L484.836 348.194C484.579 348.965 484.322 349.479 484.065 349.736Z" fill="#3F405D"/>
<path d="M476.095 366.697L540.626 400.874C540.883 400.36 541.397 399.589 541.654 399.075L476.866 365.412C476.609 365.926 476.352 366.183 476.095 366.697Z" fill="#3F405D"/>
<path d="M177.607 452.782L141.099 515.997C141.613 516.254 142.384 516.768 142.899 517.025L179.149 453.553C178.378 453.296 178.121 453.039 177.607 452.782Z" fill="#3F405D"/>
<path d="M129.787 415.264L77.0821 465.887C77.5963 466.401 78.1105 466.915 78.6247 467.429L130.815 416.292C130.558 416.035 130.044 415.521 129.787 415.264Z" fill="#3F405D"/>
<path d="M136.471 421.945L86.0804 474.624C86.5946 475.138 87.1088 475.652 87.623 476.166L137.757 422.973C137.242 422.459 136.728 422.202 136.471 421.945Z" fill="#3F405D"/>
<path d="M139.814 425.029L90.4512 478.993C90.9654 479.507 91.4796 480.021 91.9937 480.278L140.842 426.057C140.585 425.8 140.328 425.286 139.814 425.029Z" fill="#3F405D"/>
<path d="M133.129 418.605L81.4528 470.257C81.967 470.77 82.4812 471.284 82.9954 471.798L134.157 419.89C133.9 419.376 133.386 418.862 133.129 418.605Z" fill="#3F405D"/>
<path d="M143.413 428.112L95.0788 483.104C95.593 483.618 96.1071 484.132 96.6213 484.389L144.441 429.14C144.184 428.883 143.67 428.626 143.413 428.112Z" fill="#3F405D"/>
<path d="M247.794 478.221L235.196 550.172C235.967 550.172 236.481 550.429 237.253 550.429L249.336 478.478C248.822 478.478 248.308 478.478 247.794 478.221Z" fill="#3F405D"/>
<path d="M243.166 477.45L229.026 549.145C229.797 549.402 230.311 549.402 231.083 549.659L244.709 477.964C244.194 477.707 243.68 477.45 243.166 477.45Z" fill="#3F405D"/>
<path d="M238.538 476.424L222.598 547.605C223.37 547.862 223.884 547.862 224.655 548.118L239.824 476.681C239.567 476.681 239.053 476.681 238.538 476.424Z" fill="#3F405D"/>
<path d="M257.049 479.764L247.537 552.229C248.308 552.229 248.822 552.486 249.593 552.486L258.592 480.021C258.078 479.764 257.563 479.764 257.049 479.764Z" fill="#3F405D"/>
<path d="M252.421 478.993L241.366 551.202C242.138 551.202 242.652 551.459 243.423 551.459L253.964 479.25C253.45 479.25 252.936 479.25 252.421 478.993Z" fill="#3F405D"/>
<path d="M224.912 473.082L204.602 543.235C205.373 543.492 205.887 543.492 206.658 543.749L226.712 473.596C225.941 473.339 225.426 473.082 224.912 473.082Z" fill="#3F405D"/>
<path d="M229.54 474.366L210.515 544.776C211.286 545.033 211.8 545.033 212.572 545.29L230.825 474.623C230.568 474.623 230.054 474.366 229.54 474.366Z" fill="#3F405D"/>
<path d="M147.012 431.195L99.9636 487.215C100.478 487.729 100.992 487.986 101.506 488.5L148.041 432.223C147.783 431.966 147.269 431.452 147.012 431.195Z" fill="#3F405D"/>
<path d="M261.677 480.278L253.707 552.744C254.478 552.744 254.992 553.001 255.764 553.001L263.219 480.278C262.705 480.535 262.191 480.278 261.677 480.278Z" fill="#3F405D"/>
<path d="M220.542 471.54L198.688 541.179C199.46 541.436 199.974 541.693 200.745 541.693L222.084 471.797C221.57 472.054 221.056 471.797 220.542 471.54Z" fill="#3F405D"/>
<path d="M233.911 475.395L216.685 546.318C217.456 546.575 217.971 546.575 218.742 546.832L235.453 475.908C234.939 475.651 234.425 475.652 233.911 475.395Z" fill="#3F405D"/>
<path d="M165.523 445.329L124.902 505.974C125.416 506.488 126.188 506.745 126.702 507.259L166.809 446.357C166.552 445.843 166.037 445.586 165.523 445.329Z" fill="#3F405D"/>
<path d="M161.667 442.76L119.76 502.377C120.274 502.891 120.788 503.148 121.56 503.662L162.952 443.531C162.695 443.274 162.181 443.017 161.667 442.76Z" fill="#3F405D"/>
<path d="M215.914 470.256L192.518 539.381C193.289 539.638 193.804 539.895 194.575 540.152L217.456 470.77C216.942 470.513 216.428 470.256 215.914 470.256Z" fill="#3F405D"/>
<path d="M169.637 447.898L130.301 509.314C130.815 509.571 131.586 510.085 132.101 510.342L170.922 448.412C170.408 448.412 169.894 448.155 169.637 447.898Z" fill="#3F405D"/>
<path d="M158.067 439.934L114.875 498.78C115.389 499.294 115.904 499.551 116.675 500.065L159.353 440.961C158.839 440.448 158.324 440.191 158.067 439.934Z" fill="#3F405D"/>
<path d="M150.612 434.279L104.849 491.07C105.363 491.584 105.877 491.841 106.391 492.355L151.64 435.05C151.383 434.793 150.869 434.536 150.612 434.279Z" fill="#3F405D"/>
<path d="M154.211 437.105L109.733 494.924C110.248 495.438 110.762 495.695 111.533 496.209L155.496 437.876C154.982 437.619 154.725 437.362 154.211 437.105Z" fill="#3F405D"/>
<path d="M173.493 450.469L135.443 512.913C135.957 513.169 136.728 513.683 137.243 513.94L174.779 451.24C174.521 450.983 174.007 450.726 173.493 450.469Z" fill="#3F405D"/>
<path d="M207.173 466.915L180.692 535.012C181.463 535.269 181.977 535.526 182.748 535.783L208.715 467.686C208.201 467.429 207.687 467.172 207.173 466.915Z" fill="#3F405D"/>
<path d="M202.802 465.116L174.778 532.442C175.55 532.699 176.064 532.956 176.835 533.213L204.344 465.63C203.83 465.63 203.316 465.373 202.802 465.116Z" fill="#3F405D"/>
<path d="M198.431 463.317L168.865 530.13C169.38 530.387 170.151 530.644 170.922 530.901L199.974 463.831C199.46 463.831 198.946 463.574 198.431 463.317Z" fill="#3F405D"/>
<path d="M211.543 468.715L186.605 537.326C187.376 537.583 187.89 537.84 188.662 538.097L213.086 469.229C212.572 468.972 212.057 468.715 211.543 468.715Z" fill="#3F405D"/>
<path d="M185.834 457.15L152.154 521.907C152.668 522.164 153.44 522.421 153.954 522.935L187.376 457.921C186.862 457.664 186.348 457.407 185.834 457.15Z" fill="#3F405D"/>
<path d="M181.72 455.094L146.498 519.079C147.012 519.336 147.783 519.85 148.298 520.107L183.006 455.865C182.491 455.608 182.234 455.351 181.72 455.094Z" fill="#3F405D"/>
<path d="M194.318 461.518L163.466 527.559C163.981 527.816 164.752 528.073 165.266 528.33L195.603 462.032C195.089 461.775 194.575 461.775 194.318 461.518Z" fill="#3F405D"/>
<path d="M189.947 459.463L157.553 524.99C158.067 525.247 158.839 525.504 159.353 526.018L191.233 460.491C190.976 459.977 190.461 459.72 189.947 459.463Z" fill="#3F405D"/>
<path opacity="0.4" d="M403.337 199.923L431.874 183.734C424.418 170.371 414.906 158.037 404.108 147.244L380.969 170.628C389.711 179.108 397.166 189.13 403.337 199.923Z" fill="#3F405D"/>
<path opacity="0.4" d="M389.196 134.139C377.113 124.631 363.744 116.665 349.347 111.012L336.749 141.334C348.318 145.96 358.859 152.384 368.629 160.093L389.196 134.139Z" fill="#3F405D"/>
<path opacity="0.4" d="M207.944 155.981L201.774 146.987C184.548 159.065 169.894 175.254 159.353 193.499L168.865 198.895C178.378 181.935 192.004 167.288 207.944 155.981Z" fill="#3F405D"/>
<path opacity="0.4" d="M362.715 376.461L368.886 385.455C386.111 373.377 401.023 357.188 411.564 338.943L402.051 333.547C392.281 350.25 378.655 365.154 362.715 376.461Z" fill="#3F405D"/>
<path opacity="0.4" d="M151.126 278.042L140.328 279.07C142.127 300.398 148.555 320.699 159.353 339.201L168.865 333.805C158.839 316.331 152.925 297.829 151.126 278.042Z" fill="#3F405D"/>
<path d="M285.33 80.6891C312.068 80.6891 338.034 86.3425 362.201 97.3922L363.487 94.5655C338.806 83.2588 312.582 77.6055 285.33 77.6055C252.164 77.6055 219.513 86.3425 190.719 103.046L192.261 105.615C220.542 89.4261 252.679 80.6891 285.33 80.6891Z" fill="#3F405D"/>
<path d="M99.9637 266.222C99.9637 206.605 129.016 150.071 177.607 115.38L175.807 112.811C151.897 130.028 132.101 152.641 118.475 178.595C104.334 205.32 96.8786 235.642 96.8786 266.222V266.479L99.9637 266.222Z" fill="#3F405D"/>
<path d="M285.33 451.496C258.592 451.496 232.625 445.843 208.458 434.793L207.173 437.62C231.854 448.927 258.078 454.58 285.33 454.58C318.495 454.58 351.146 445.843 379.684 429.397L378.141 426.827C350.118 443.016 317.981 451.496 285.33 451.496Z" fill="#3F405D"/>
<path d="M293.043 271.874C291.5 271.36 289.443 271.104 286.615 271.104H279.931V282.153C279.931 283.695 279.931 284.723 280.188 284.98C280.188 285.237 280.445 285.494 280.702 285.751C280.959 286.008 281.73 286.008 283.016 286.008H286.872C289.186 286.008 290.729 285.751 292.271 285.494C293.814 284.98 294.842 284.209 295.871 282.924C296.899 281.639 297.413 280.097 297.413 278.299C297.413 276.757 297.156 275.472 296.385 274.444C295.357 273.159 294.328 272.388 293.043 271.874Z" fill="#3F405D"/>
<path d="M292.014 262.624C293.3 262.11 294.585 261.339 295.099 260.311C295.871 259.284 296.128 258.256 296.128 256.971C296.128 255.686 295.871 254.401 295.099 253.63C294.328 252.602 293.557 252.088 292.271 251.574C290.986 251.061 288.672 251.061 285.33 251.061H279.931V263.652H285.587C288.415 263.395 290.472 263.138 292.014 262.624Z" fill="#3F405D"/>
<path d="M285.073 219.71C258.592 219.71 236.996 241.295 236.996 267.763C236.996 294.231 258.592 315.817 285.073 315.817C311.553 315.817 333.15 294.231 333.15 267.763C333.15 241.295 311.811 219.71 285.073 219.71ZM308.211 287.036C306.669 289.349 304.355 291.148 301.27 292.176C299.727 292.69 297.67 293.203 295.356 293.46V301.17C295.356 301.683 294.842 302.197 294.328 302.197H289.443C288.929 302.197 288.415 301.683 288.415 301.17V293.974C288.415 293.974 288.415 293.974 288.158 293.974H283.787V301.17C283.787 301.683 283.273 302.197 282.759 302.197H277.36C276.846 302.197 276.331 301.683 276.331 301.17V293.974H262.191C261.677 293.974 261.163 293.46 261.163 292.946V288.064C261.163 287.55 261.677 287.036 262.191 287.036H262.962C264.248 287.036 265.276 287.036 265.79 286.779C266.305 286.522 266.562 286.265 266.819 285.751C267.076 285.237 267.076 284.466 267.076 282.925V254.144C267.076 252.602 267.076 251.574 266.819 251.317C266.562 250.803 266.305 250.546 265.79 250.289C265.276 250.032 264.505 250.032 262.962 250.032H262.191C261.677 250.032 261.163 249.519 261.163 249.005V244.122C261.163 243.608 261.677 243.094 262.191 243.094H276.331V235.642C276.331 235.128 276.846 234.614 277.36 234.614H282.502C283.016 234.614 283.53 235.128 283.53 235.642V243.094H288.158V235.642C288.158 235.128 288.672 234.614 289.186 234.614H294.328C294.842 234.614 295.356 235.128 295.356 235.642V243.351C297.413 243.608 299.213 244.122 300.755 244.636C303.326 245.664 305.383 247.206 306.669 249.005C307.954 251.06 308.725 253.116 308.725 255.429C308.725 257.228 308.468 258.769 307.697 260.311C306.926 261.853 305.897 263.138 304.612 264.423C303.326 265.708 301.527 266.479 299.213 267.249C301.527 267.763 303.584 268.534 304.612 269.305C306.412 270.333 307.954 271.875 308.983 273.674C310.011 275.473 310.525 277.528 310.525 279.841C310.525 282.154 309.754 284.723 308.211 287.036Z" fill="#3F405D"/>
<path d="M285.073 204.035C249.851 204.035 221.313 232.559 221.313 267.764C221.313 302.969 249.851 331.492 285.073 331.492C320.295 331.492 348.832 302.969 348.832 267.764C349.089 232.559 320.295 204.035 285.073 204.035ZM285.073 323.526C254.221 323.526 229.283 298.6 229.283 267.764C229.283 236.927 254.221 212.001 285.073 212.001C315.924 212.001 340.862 236.927 340.862 267.764C340.862 298.6 315.924 323.526 285.073 323.526Z" fill="#3F405D"/>
<g opacity="0.6">
<path opacity="0.6" d="M293.043 271.874C291.5 271.36 289.443 271.104 286.615 271.104H279.931V282.153C279.931 283.695 279.931 284.723 280.188 284.98C280.188 285.237 280.445 285.494 280.702 285.751C280.959 286.008 281.73 286.008 283.016 286.008H286.872C289.186 286.008 290.729 285.751 292.271 285.494C293.814 284.98 294.842 284.209 295.871 282.924C296.899 281.639 297.413 280.097 297.413 278.299C297.413 276.757 297.156 275.472 296.385 274.444C295.357 273.159 294.328 272.388 293.043 271.874ZM294.842 281.896C294.071 282.924 293.043 283.695 291.757 283.952C290.472 284.209 288.672 284.466 286.615 284.466H282.759C281.731 284.466 281.216 284.466 280.959 284.466C280.959 284.209 280.959 283.952 280.959 282.153V272.131H286.358C289.186 272.131 291.243 272.388 292.529 272.902C293.814 273.416 294.585 273.93 295.099 274.958C295.614 275.729 295.871 276.757 295.871 278.042C296.128 279.584 295.614 280.868 294.842 281.896Z" fill="#3F405D"/>
<path opacity="0.6" d="M292.014 262.624C293.3 262.11 294.585 261.339 295.099 260.311C295.871 259.284 296.128 258.256 296.128 256.971C296.128 255.686 295.871 254.401 295.099 253.63C294.328 252.602 293.557 252.088 292.271 251.574C290.986 251.061 288.672 251.061 285.33 251.061H279.931V263.652H285.587C288.415 263.395 290.472 263.138 292.014 262.624ZM280.959 252.088H285.33C288.415 252.088 290.729 252.345 291.757 252.602C292.786 252.859 293.557 253.373 294.071 254.144C294.585 254.915 294.842 255.943 294.842 256.971C294.842 257.999 294.585 259.027 294.071 259.798C293.557 260.568 292.786 261.082 291.5 261.596C290.215 262.11 288.158 262.367 285.33 262.367H280.959V252.088Z" fill="#3F405D"/>
<path opacity="0.6" d="M305.126 267.764C304.355 267.25 303.584 266.993 302.555 266.736C303.584 266.223 304.355 265.709 305.126 264.938C306.669 263.653 307.697 262.111 308.468 260.569C309.24 258.77 309.754 256.972 309.754 255.173C309.754 252.603 308.983 250.29 307.44 247.978C305.897 245.922 303.841 244.123 301.013 243.095C299.727 242.581 298.185 242.067 296.385 241.81V235.129C296.385 233.844 295.357 232.816 294.071 232.816H288.929C287.644 232.816 286.615 233.844 286.615 235.129V241.553H284.559V235.386C284.559 234.101 283.53 233.073 282.245 233.073H277.103C275.817 233.073 274.789 234.101 274.789 235.386V241.553H261.934C260.649 241.553 259.62 242.581 259.62 243.866V248.749C259.62 250.033 260.649 251.061 261.934 251.061H262.705C264.248 251.061 264.762 251.318 264.762 251.318C265.019 251.575 265.276 251.575 265.276 251.832C265.276 251.832 265.533 252.346 265.533 254.145V282.669C265.533 284.467 265.276 284.981 265.276 284.981C265.276 284.981 265.019 285.238 264.762 285.495C264.762 285.495 264.248 285.752 262.448 285.752H261.677C260.392 285.752 259.363 286.78 259.363 288.065V292.947C259.363 294.232 260.392 295.26 261.677 295.26H274.532V301.427C274.532 302.712 275.56 303.74 276.846 303.74H281.73C283.016 303.74 284.044 302.712 284.044 301.427V295.26H286.358V301.427C286.358 302.712 287.387 303.74 288.672 303.74H293.557C294.842 303.74 295.871 302.712 295.871 301.427V294.746C297.928 294.489 299.47 293.975 301.013 293.461C304.098 292.177 306.669 290.378 308.468 287.808C310.268 285.238 311.039 282.669 311.039 279.585C311.039 277.015 310.525 274.703 309.24 272.904C308.726 270.591 307.183 269.049 305.126 267.764ZM308.211 287.037C306.669 289.35 304.355 291.149 301.27 292.177C299.727 292.69 297.67 293.204 295.357 293.461V301.171C295.357 301.684 294.842 302.198 294.328 302.198H289.443C288.929 302.198 288.415 301.684 288.415 301.171V293.975C288.415 293.975 288.415 293.975 288.158 293.975H283.787V301.171C283.787 301.684 283.273 302.198 282.759 302.198H277.36C276.846 302.198 276.331 301.684 276.331 301.171V293.975H262.191C261.677 293.975 261.163 293.461 261.163 292.947V288.065C261.163 287.551 261.677 287.037 262.191 287.037H262.962C264.248 287.037 265.276 287.037 265.791 286.78C266.305 286.523 266.562 286.266 266.819 285.752C267.076 285.238 267.076 284.467 267.076 282.926V254.145C267.076 252.603 267.076 251.575 266.819 251.318C266.562 250.804 266.305 250.547 265.791 250.29C265.276 250.033 264.505 250.033 262.962 250.033H262.191C261.677 250.033 261.163 249.519 261.163 249.006V244.123C261.163 243.609 261.677 243.095 262.191 243.095H276.331V235.643C276.331 235.129 276.846 234.615 277.36 234.615H282.502C283.016 234.615 283.53 235.129 283.53 235.643V243.095H288.158V235.643C288.158 235.129 288.672 234.615 289.186 234.615H294.328C294.842 234.615 295.357 235.129 295.357 235.643V243.352C297.413 243.609 299.213 244.123 300.756 244.637C303.327 245.665 305.383 247.207 306.669 249.006C307.954 251.061 308.726 253.117 308.726 255.43C308.726 257.229 308.468 258.77 307.697 260.312C306.926 261.854 305.898 263.139 304.612 264.424C303.327 265.709 301.527 266.48 299.213 267.25C301.527 267.764 303.584 268.535 304.612 269.306C306.412 270.334 307.954 271.876 308.983 273.675C310.011 275.473 310.525 277.529 310.525 279.842C310.525 282.155 309.754 284.724 308.211 287.037Z" fill="#3F405D"/>
<path opacity="0.6" d="M285.073 219.71C258.592 219.71 236.996 241.295 236.996 267.763C236.996 294.231 258.592 315.817 285.073 315.817C311.553 315.817 333.15 294.231 333.15 267.763C333.15 241.295 311.811 219.71 285.073 219.71ZM285.073 314.532C259.363 314.532 238.281 293.46 238.281 267.763C238.281 242.066 259.363 220.995 285.073 220.995C310.782 220.995 331.864 242.066 331.864 267.763C331.864 293.46 311.039 314.532 285.073 314.532Z" fill="#3F405D"/>
<path opacity="0.6" d="M285.073 204.035C249.851 204.035 221.313 232.559 221.313 267.764C221.313 302.969 249.851 331.492 285.073 331.492C320.295 331.492 348.832 302.969 348.832 267.764C349.089 232.559 320.295 204.035 285.073 204.035ZM285.073 330.465C250.622 330.465 222.341 302.455 222.341 267.764C222.341 233.33 250.365 205.063 285.073 205.063C319.523 205.063 347.804 233.073 347.804 267.764C347.804 302.198 319.781 330.465 285.073 330.465Z" fill="#3F405D"/>
<path opacity="0.6" d="M285.073 210.716C253.707 210.716 227.997 236.156 227.997 267.763C227.997 299.114 253.45 324.811 285.073 324.811C316.438 324.811 342.148 299.371 342.148 267.763C342.148 236.413 316.695 210.716 285.073 210.716ZM285.073 323.526C254.221 323.526 229.283 298.6 229.283 267.763C229.283 236.927 254.221 212.001 285.073 212.001C315.924 212.001 340.862 236.927 340.862 267.763C340.862 298.6 315.924 323.526 285.073 323.526Z" fill="#3F405D"/>
</g>
<path d="M135.443 326.096L109.476 336.374C125.159 375.691 153.954 408.84 190.719 430.169L204.602 406.013C173.493 387.769 148.812 359.502 135.443 326.096ZM189.947 426.828C155.496 406.27 127.987 374.663 112.561 337.659L134.157 329.179C147.526 361.558 171.436 388.796 201.517 406.784L189.947 426.828Z" fill="#3F405D"/>
<path opacity="0.6" d="M237.51 37.5181L231.854 10.2793C221.313 12.592 210.772 15.4187 200.745 18.7593L209.744 45.2273C218.742 42.1436 227.997 39.5739 237.51 37.5181Z" fill="#3F405D"/>
<path opacity="0.6" d="M507.46 193.499L533.941 184.762C530.599 174.483 526.486 164.461 521.858 154.696L496.662 166.517C500.776 175.254 504.375 184.505 507.46 193.499Z" fill="#3F405D"/>
<path opacity="0.6" d="M316.181 497.494L319.78 525.247C330.578 523.962 341.119 521.649 351.66 519.08L344.462 492.098C335.206 494.41 325.694 496.209 316.181 497.494Z" fill="#3F405D"/>
<path opacity="0.6" d="M462.726 418.09L484.065 436.335C491.006 428.112 497.691 419.375 503.604 410.638L480.208 395.22C474.809 402.929 469.153 410.638 462.726 418.09Z" fill="#3F405D"/>
<path opacity="0.6" d="M282.245 499.55L281.987 527.56C283.273 527.56 284.301 527.56 285.587 527.56C295.099 527.56 304.869 527.046 314.381 526.018L311.296 498.266C301.527 499.294 291.757 499.807 282.245 499.55Z" fill="#3F405D"/>
<path opacity="0.6" d="M52.9152 288.577L25.1488 291.147C26.1772 301.94 27.9769 312.732 30.2907 323.011L57.5429 316.844C55.229 307.85 53.6864 298.342 52.9152 288.577Z" fill="#3F405D"/>
<path opacity="0.6" d="M69.1122 354.619L43.1455 365.155C47.259 375.177 51.8868 384.942 57.2858 394.193L81.7099 380.573C77.0821 372.093 72.7115 363.356 69.1122 354.619Z" fill="#3F405D"/>
<path opacity="0.6" d="M51.8868 266.221C51.8868 262.366 51.8868 258.511 52.1439 254.657L24.1204 253.372C23.8633 257.741 23.8633 262.109 23.8633 266.221C23.8633 272.645 24.1204 279.069 24.6346 285.493L52.6581 283.438C52.1439 277.784 51.8868 271.874 51.8868 266.221Z" fill="#3F405D"/>
<path opacity="0.4" d="M285.33 138.765C290.986 138.765 296.642 139.022 302.298 139.792L303.583 130.799C297.67 130.028 291.5 129.514 285.33 129.514C261.163 129.514 237.51 135.938 216.942 147.759L221.57 155.725C240.852 144.675 262.962 138.765 285.33 138.765Z" fill="#3F405D"/>
<path opacity="0.4" d="M412.849 265.964V266.221C412.849 294.745 403.594 321.726 386.368 344.083L393.567 349.736C412.335 325.581 422.105 296.8 422.105 266.221V265.964H412.849Z" fill="#3F405D"/>
<path opacity="0.4" d="M167.58 314.532L159.096 318.13C170.408 345.883 191.233 369.524 217.199 384.428L221.827 376.462C197.403 362.329 178.121 340.486 167.58 314.532Z" fill="#3F405D"/>
<path opacity="0.8" d="M181.206 345.882L143.156 375.176C157.553 394.192 175.293 409.61 195.86 421.431L220.027 379.802C204.859 371.065 191.747 359.501 181.206 345.882ZM195.089 418.861C175.807 407.555 159.353 392.907 145.47 375.433L180.692 348.452C190.976 361.3 203.059 372.093 217.199 380.573L195.089 418.861Z" fill="#3F405D"/>
<path opacity="0.8" d="M370.685 166.517L402.051 130.027C383.797 114.609 363.23 103.045 340.605 95.5928L325.694 141.333C342.148 146.73 357.317 155.21 370.685 166.517ZM341.634 97.9055C362.716 104.844 382.255 115.893 399.223 130.284L370.428 163.947C357.831 153.411 343.433 145.445 328.008 140.306L341.634 97.9055Z" fill="#3F405D"/>
<path opacity="0.8" d="M403.851 209.687L447.3 188.872C437.016 167.544 422.876 148.528 405.136 132.596L372.999 168.315C385.854 180.135 396.395 194.012 403.851 209.687ZM405.136 135.422C421.59 150.584 434.959 168.315 444.729 188.358L404.622 207.374C397.423 192.727 387.654 179.621 375.57 168.572L405.136 135.422Z" fill="#3F405D"/>
<path opacity="0.8" d="M222.598 381.345L199.46 423.488C220.285 434.795 242.909 441.99 266.562 444.302L271.447 396.506C254.478 394.707 237.767 389.568 222.598 381.345ZM265.019 442.247C242.909 439.677 221.57 433.253 202.031 422.717L223.37 383.657C237.767 391.367 253.45 396.249 269.647 398.048L265.019 442.247Z" fill="#3F405D"/>
<path opacity="0.8" d="M285.33 135.167C297.927 135.167 310.525 136.966 322.609 140.563L336.235 94.5654C319.781 89.683 302.555 87.1133 285.33 87.1133C278.902 87.1133 272.732 87.3702 266.305 88.1412L271.447 135.938C276.074 135.424 280.702 135.167 285.33 135.167ZM285.33 88.9121C301.784 88.9121 318.238 91.2248 334.178 95.5933L321.58 138.25C310.011 134.91 297.67 133.368 285.33 133.368C281.216 133.368 277.103 133.625 272.989 133.882L268.361 89.683C274.018 89.169 279.674 88.9121 285.33 88.9121Z" fill="#3F405D"/>
<path opacity="0.8" d="M216.942 154.182L191.747 113.323C171.436 125.658 154.211 141.847 140.071 161.12L178.892 189.386C189.433 175.253 202.031 163.432 216.942 154.182ZM142.899 160.606C156.268 142.618 172.465 127.714 191.233 115.893L214.371 153.668C200.488 162.405 188.405 173.454 178.635 186.56L142.899 160.606Z" fill="#3F405D"/>
<path opacity="0.8" d="M177.349 191.7L137.757 164.461C124.131 183.991 114.875 205.833 109.99 229.217L157.039 238.982C160.638 222.022 167.58 206.09 177.349 191.7ZM112.304 227.676C116.932 205.833 125.673 185.532 138.271 167.031L174.779 192.214C165.523 205.833 159.096 220.737 155.496 236.927L112.304 227.676Z" fill="#3F405D"/>
<path opacity="0.8" d="M157.81 296.544L111.019 307.594C116.418 330.721 126.445 352.306 140.585 371.579L179.406 343.313C169.122 329.179 161.924 313.504 157.81 296.544ZM113.333 309.135L156.525 298.857C160.638 314.789 167.323 329.436 176.835 343.056L140.842 369.266C127.987 350.765 118.475 330.721 113.333 309.135Z" fill="#3F405D"/>
<g opacity="0.6">
<path opacity="0.6" d="M285.073 360.271C261.163 360.271 236.996 351.02 218.742 332.776C201.517 315.559 192.518 293.459 191.233 270.846H188.919C189.947 293.973 199.46 316.586 216.942 334.317C235.71 353.076 260.391 362.584 284.816 362.584V360.271H285.073Z" fill="#3F405D"/>
<path opacity="0.6" d="M188.919 269.305H191.233C190.461 245.149 198.946 220.737 216.428 201.978L214.885 200.437C196.632 219.709 188.148 244.635 188.919 269.305Z" fill="#3F405D"/>
<path opacity="0.6" d="M286.615 172.169C310.268 172.426 333.664 181.677 351.918 199.665C371.2 218.938 380.198 244.121 379.427 269.304H381.741C382.512 243.607 373.257 217.653 353.46 198.123C334.949 179.621 310.782 170.37 286.615 169.856V172.169Z" fill="#3F405D"/>
<path opacity="0.6" d="M217.456 200.693C217.714 200.436 218.228 199.922 218.485 199.665C236.996 181.42 260.906 172.169 285.073 172.169V169.856C260.391 169.856 235.967 179.364 217.199 198.123C216.942 198.38 216.428 198.894 216.171 199.151L217.456 200.693Z" fill="#3F405D"/>
</g>
<path d="M285.33 106.642C290.214 106.642 295.099 106.899 299.984 107.413L306.669 33.4058C299.727 32.8919 292.528 32.3779 285.33 32.3779C275.817 32.3779 266.305 32.8919 256.792 34.1767L265.79 107.927C272.218 107.156 278.902 106.642 285.33 106.642ZM285.33 35.7185C291.243 35.7185 297.413 35.9755 303.326 36.4895L297.156 104.33C293.3 104.073 289.186 103.816 285.33 103.816C279.674 103.816 274.017 104.073 268.361 104.587L260.134 37.0034C268.618 35.9755 277.103 35.7185 285.33 35.7185Z" fill="#3F405D"/>
<path d="M162.952 163.947L106.134 116.407C95.3359 129.256 86.0804 143.132 78.3676 157.779L144.184 192.213C149.326 182.192 155.753 172.684 162.952 163.947ZM82.4811 156.495C89.4227 143.903 97.3926 131.825 106.648 120.519L158.839 164.204C152.925 171.656 147.526 179.622 142.899 188.102L82.4811 156.495Z" fill="#3F405D"/>
<path d="M439.073 223.306L510.545 203.519C506.175 187.587 500.005 171.912 492.035 157.008L426.475 191.699C431.874 201.978 435.988 212.513 439.073 223.306ZM506.946 201.464L441.387 219.709C438.559 210.458 435.216 201.721 430.846 193.241L490.749 161.376C497.434 174.225 502.833 187.587 506.946 201.464Z" fill="#3F405D"/>
<path d="M444.729 261.339L519.03 259.284C518.516 242.581 516.202 225.877 512.345 209.945L440.358 227.676C442.929 238.726 444.472 250.033 444.729 261.339ZM515.945 256.2L447.814 258.256C447.3 248.748 446.015 239.24 443.958 229.989L510.031 213.543C513.374 227.419 515.173 241.81 515.945 256.2Z" fill="#3F405D"/>
<path d="M224.655 118.72L196.375 50.1094C180.949 56.5336 166.294 64.4997 152.411 74.0076L194.832 134.91C204.087 128.485 214.114 123.089 224.655 118.72ZM194.575 54.2209L220.542 117.179C211.8 121.033 203.316 125.659 195.346 130.798L156.525 74.7785C168.608 66.8124 181.206 59.8742 194.575 54.2209Z" fill="#3F405D"/>
<path d="M519.03 265.708H444.729V266.222C444.729 277.786 443.443 289.092 441.13 300.142L513.631 315.817C517.23 299.628 519.03 282.925 519.03 266.222V265.708ZM511.574 312.22L444.986 297.829C446.786 288.321 447.814 278.557 448.071 268.792H516.201C515.944 283.439 514.402 297.829 511.574 312.22Z" fill="#3F405D"/>
<path d="M346.004 413.722L374.285 482.333C389.71 475.909 404.365 467.943 418.248 458.435L376.084 397.533C366.572 403.7 356.545 409.354 346.004 413.722ZM376.084 478.222L350.118 415.264C358.859 411.41 367.343 406.784 375.313 401.645L414.135 457.664C402.051 465.63 389.196 472.569 376.084 478.222Z" fill="#3F405D"/>
<path d="M169.122 375.177L114.875 426.057C126.187 438.134 139.042 449.184 152.668 458.692L194.832 397.533C185.577 390.852 176.835 383.4 169.122 375.177ZM151.897 454.324C140.071 446.101 129.273 436.593 119.246 426.057L168.865 379.545C175.55 386.483 182.749 392.651 190.719 398.304L151.897 454.324Z" fill="#3F405D"/>
<path d="M233.139 416.806L208.715 486.959C224.398 492.355 240.852 496.209 257.306 498.265L266.048 424.515C254.992 422.973 243.68 420.403 233.139 416.806ZM254.735 494.668C240.338 492.869 226.198 489.528 212.572 484.903L234.939 420.66C243.937 423.744 253.45 425.8 262.962 427.084L254.735 494.668Z" fill="#3F405D"/>
<path d="M198.431 399.845L157.81 462.032C171.693 471.025 186.862 478.735 202.288 484.645L228.512 415.263C218.228 411.151 208.201 406.012 198.431 399.845ZM200.745 480.79C187.376 475.394 174.264 468.97 162.181 461.261L199.46 404.213C207.687 409.353 216.171 413.721 224.912 417.062L200.745 480.79Z" fill="#3F405D"/>
<g opacity="0.5">
<g opacity="0.5">
<path opacity="0.5" d="M293.043 271.874C291.5 271.36 289.443 271.104 286.615 271.104H279.931V282.153C279.931 283.695 279.931 284.723 280.188 284.98C280.188 285.237 280.445 285.494 280.702 285.751C280.959 286.008 281.73 286.008 283.016 286.008H286.872C289.186 286.008 290.729 285.751 292.271 285.494C293.814 284.98 294.842 284.209 295.871 282.924C296.899 281.639 297.413 280.097 297.413 278.299C297.413 276.757 297.156 275.472 296.385 274.444C295.357 273.159 294.328 272.388 293.043 271.874Z" fill="#3F405D"/>
<path opacity="0.5" d="M292.014 262.624C293.3 262.11 294.585 261.339 295.099 260.311C295.871 259.284 296.128 258.256 296.128 256.971C296.128 255.686 295.871 254.401 295.099 253.63C294.328 252.602 293.557 252.088 292.271 251.574C290.986 251.061 288.672 251.061 285.33 251.061H279.931V263.652H285.587C288.415 263.395 290.472 263.138 292.014 262.624Z" fill="#3F405D"/>
<path opacity="0.5" d="M285.073 219.71C258.592 219.71 236.996 241.295 236.996 267.763C236.996 294.231 258.592 315.817 285.073 315.817C311.553 315.817 333.15 294.231 333.15 267.763C333.15 241.295 311.811 219.71 285.073 219.71ZM308.211 287.036C306.669 289.349 304.355 291.148 301.27 292.176C299.727 292.69 297.67 293.203 295.356 293.46V301.17C295.356 301.683 294.842 302.197 294.328 302.197H289.443C288.929 302.197 288.415 301.683 288.415 301.17V293.974C288.415 293.974 288.415 293.974 288.158 293.974H283.787V301.17C283.787 301.683 283.273 302.197 282.759 302.197H277.36C276.846 302.197 276.331 301.683 276.331 301.17V293.974H262.191C261.677 293.974 261.163 293.46 261.163 292.946V288.064C261.163 287.55 261.677 287.036 262.191 287.036H262.962C264.248 287.036 265.276 287.036 265.79 286.779C266.305 286.522 266.562 286.265 266.819 285.751C267.076 285.237 267.076 284.466 267.076 282.925V254.144C267.076 252.602 267.076 251.574 266.819 251.317C266.562 250.803 266.305 250.546 265.79 250.289C265.276 250.032 264.505 250.032 262.962 250.032H262.191C261.677 250.032 261.163 249.519 261.163 249.005V244.122C261.163 243.608 261.677 243.094 262.191 243.094H276.331V235.642C276.331 235.128 276.846 234.614 277.36 234.614H282.502C283.016 234.614 283.53 235.128 283.53 235.642V243.094H288.158V235.642C288.158 235.128 288.672 234.614 289.186 234.614H294.328C294.842 234.614 295.356 235.128 295.356 235.642V243.351C297.413 243.608 299.213 244.122 300.755 244.636C303.326 245.664 305.383 247.206 306.669 249.005C307.954 251.06 308.725 253.116 308.725 255.429C308.725 257.228 308.468 258.769 307.697 260.311C306.926 261.853 305.897 263.138 304.612 264.423C303.326 265.708 301.527 266.479 299.213 267.249C301.527 267.763 303.584 268.534 304.612 269.305C306.412 270.333 307.954 271.875 308.983 273.674C310.011 275.473 310.525 277.528 310.525 279.841C310.525 282.154 309.754 284.723 308.211 287.036Z" fill="#3F405D"/>
<path opacity="0.5" d="M285.073 204.035C249.851 204.035 221.313 232.559 221.313 267.764C221.313 302.969 249.851 331.492 285.073 331.492C320.295 331.492 348.832 302.969 348.832 267.764C349.089 232.559 320.295 204.035 285.073 204.035ZM285.073 323.526C254.221 323.526 229.283 298.6 229.283 267.764C229.283 236.927 254.221 212.001 285.073 212.001C315.924 212.001 340.862 236.927 340.862 267.764C340.862 298.6 315.924 323.526 285.073 323.526Z" fill="#3F405D"/>
</g>
<g opacity="0.6">
<path opacity="0.6" d="M293.043 271.874C291.5 271.36 289.443 271.104 286.615 271.104H279.931V282.153C279.931 283.695 279.931 284.723 280.188 284.98C280.188 285.237 280.445 285.494 280.702 285.751C280.959 286.008 281.73 286.008 283.016 286.008H286.872C289.186 286.008 290.729 285.751 292.271 285.494C293.814 284.98 294.842 284.209 295.871 282.924C296.899 281.639 297.413 280.097 297.413 278.299C297.413 276.757 297.156 275.472 296.385 274.444C295.357 273.159 294.328 272.388 293.043 271.874ZM294.842 281.896C294.071 282.924 293.043 283.695 291.757 283.952C290.472 284.209 288.672 284.466 286.615 284.466H282.759C281.731 284.466 281.216 284.466 280.959 284.466C280.959 284.209 280.959 283.952 280.959 282.153V272.131H286.358C289.186 272.131 291.243 272.388 292.529 272.902C293.814 273.416 294.585 273.93 295.099 274.958C295.614 275.729 295.871 276.757 295.871 278.042C296.128 279.584 295.614 280.868 294.842 281.896Z" fill="#3F405D"/>
<path opacity="0.6" d="M292.014 262.624C293.3 262.11 294.585 261.339 295.099 260.311C295.871 259.284 296.128 258.256 296.128 256.971C296.128 255.686 295.871 254.401 295.099 253.63C294.328 252.602 293.557 252.088 292.271 251.574C290.986 251.061 288.672 251.061 285.33 251.061H279.931V263.652H285.587C288.415 263.395 290.472 263.138 292.014 262.624ZM280.959 252.088H285.33C288.415 252.088 290.729 252.345 291.757 252.602C292.786 252.859 293.557 253.373 294.071 254.144C294.585 254.915 294.842 255.943 294.842 256.971C294.842 257.999 294.585 259.027 294.071 259.798C293.557 260.568 292.786 261.082 291.5 261.596C290.215 262.11 288.158 262.367 285.33 262.367H280.959V252.088Z" fill="#3F405D"/>
<path opacity="0.6" d="M305.126 267.764C304.355 267.25 303.584 266.993 302.555 266.736C303.584 266.223 304.355 265.709 305.126 264.938C306.669 263.653 307.697 262.111 308.468 260.569C309.24 258.77 309.754 256.972 309.754 255.173C309.754 252.603 308.983 250.29 307.44 247.978C305.897 245.922 303.841 244.123 301.013 243.095C299.727 242.581 298.185 242.067 296.385 241.81V235.129C296.385 233.844 295.357 232.816 294.071 232.816H288.929C287.644 232.816 286.615 233.844 286.615 235.129V241.553H284.559V235.386C284.559 234.101 283.53 233.073 282.245 233.073H277.103C275.817 233.073 274.789 234.101 274.789 235.386V241.553H261.934C260.649 241.553 259.62 242.581 259.62 243.866V248.749C259.62 250.033 260.649 251.061 261.934 251.061H262.705C264.248 251.061 264.762 251.318 264.762 251.318C265.019 251.575 265.276 251.575 265.276 251.832C265.276 251.832 265.533 252.346 265.533 254.145V282.669C265.533 284.467 265.276 284.981 265.276 284.981C265.276 284.981 265.019 285.238 264.762 285.495C264.762 285.495 264.248 285.752 262.448 285.752H261.677C260.392 285.752 259.363 286.78 259.363 288.065V292.947C259.363 294.232 260.392 295.26 261.677 295.26H274.532V301.427C274.532 302.712 275.56 303.74 276.846 303.74H281.73C283.016 303.74 284.044 302.712 284.044 301.427V295.26H286.358V301.427C286.358 302.712 287.387 303.74 288.672 303.74H293.557C294.842 303.74 295.871 302.712 295.871 301.427V294.746C297.928 294.489 299.47 293.975 301.013 293.461C304.098 292.177 306.669 290.378 308.468 287.808C310.268 285.238 311.039 282.669 311.039 279.585C311.039 277.015 310.525 274.703 309.24 272.904C308.726 270.591 307.183 269.049 305.126 267.764ZM308.211 287.037C306.669 289.35 304.355 291.149 301.27 292.177C299.727 292.69 297.67 293.204 295.357 293.461V301.171C295.357 301.684 294.842 302.198 294.328 302.198H289.443C288.929 302.198 288.415 301.684 288.415 301.171V293.975C288.415 293.975 288.415 293.975 288.158 293.975H283.787V301.171C283.787 301.684 283.273 302.198 282.759 302.198H277.36C276.846 302.198 276.331 301.684 276.331 301.171V293.975H262.191C261.677 293.975 261.163 293.461 261.163 292.947V288.065C261.163 287.551 261.677 287.037 262.191 287.037H262.962C264.248 287.037 265.276 287.037 265.791 286.78C266.305 286.523 266.562 286.266 266.819 285.752C267.076 285.238 267.076 284.467 267.076 282.926V254.145C267.076 252.603 267.076 251.575 266.819 251.318C266.562 250.804 266.305 250.547 265.791 250.29C265.276 250.033 264.505 250.033 262.962 250.033H262.191C261.677 250.033 261.163 249.519 261.163 249.006V244.123C261.163 243.609 261.677 243.095 262.191 243.095H276.331V235.643C276.331 235.129 276.846 234.615 277.36 234.615H282.502C283.016 234.615 283.53 235.129 283.53 235.643V243.095H288.158V235.643C288.158 235.129 288.672 234.615 289.186 234.615H294.328C294.842 234.615 295.357 235.129 295.357 235.643V243.352C297.413 243.609 299.213 244.123 300.756 244.637C303.327 245.665 305.383 247.207 306.669 249.006C307.954 251.061 308.726 253.117 308.726 255.43C308.726 257.229 308.468 258.77 307.697 260.312C306.926 261.854 305.898 263.139 304.612 264.424C303.327 265.709 301.527 266.48 299.213 267.25C301.527 267.764 303.584 268.535 304.612 269.306C306.412 270.334 307.954 271.876 308.983 273.675C310.011 275.473 310.525 277.529 310.525 279.842C310.525 282.155 309.754 284.724 308.211 287.037Z" fill="#3F405D"/>
<path opacity="0.6" d="M285.073 219.71C258.592 219.71 236.996 241.295 236.996 267.763C236.996 294.231 258.592 315.817 285.073 315.817C311.553 315.817 333.15 294.231 333.15 267.763C333.15 241.295 311.811 219.71 285.073 219.71ZM285.073 314.532C259.363 314.532 238.281 293.46 238.281 267.763C238.281 242.066 259.363 220.995 285.073 220.995C310.782 220.995 331.864 242.066 331.864 267.763C331.864 293.46 311.039 314.532 285.073 314.532Z" fill="#3F405D"/>
<path opacity="0.6" d="M285.073 204.035C249.851 204.035 221.313 232.559 221.313 267.764C221.313 302.969 249.851 331.492 285.073 331.492C320.295 331.492 348.832 302.969 348.832 267.764C349.089 232.559 320.295 204.035 285.073 204.035ZM285.073 330.465C250.622 330.465 222.341 302.455 222.341 267.764C222.341 233.33 250.365 205.063 285.073 205.063C319.523 205.063 347.804 233.073 347.804 267.764C347.804 302.198 319.781 330.465 285.073 330.465Z" fill="#3F405D"/>
<path opacity="0.6" d="M285.073 210.716C253.707 210.716 227.997 236.156 227.997 267.763C227.997 299.114 253.45 324.811 285.073 324.811C316.438 324.811 342.148 299.371 342.148 267.763C342.148 236.413 316.695 210.716 285.073 210.716ZM285.073 323.526C254.221 323.526 229.283 298.6 229.283 267.763C229.283 236.927 254.221 212.001 285.073 212.001C315.924 212.001 340.862 236.927 340.862 267.763C340.862 298.6 315.924 323.526 285.073 323.526Z" fill="#3F405D"/>
</g>
</g>
<g filter="url(#filter0_ddd)">
<path d="M285.33 416.291C276.074 416.291 266.819 415.52 257.821 413.721L262.962 386.225C270.418 387.51 277.874 388.281 285.587 388.281C313.61 388.281 339.834 379.03 361.687 361.556L379.17 383.399C352.689 404.47 319.266 416.291 285.33 416.291ZM252.164 412.436C209.744 402.928 173.493 375.176 152.926 336.63L177.607 323.525C194.318 354.875 223.884 377.488 258.335 385.197L252.164 412.436ZM383.54 379.801L365.287 358.729C392.282 335.602 407.707 301.682 407.707 266.22V265.963H435.731V266.22C435.474 309.905 416.449 351.277 383.54 379.801ZM150.097 331.491C140.328 310.933 135.186 289.091 135.186 266.22C135.186 245.406 139.299 225.362 147.527 206.603L173.236 217.653C166.552 233.071 163.209 249.26 163.209 266.22C163.209 284.722 167.323 302.71 175.293 319.413L150.097 331.491ZM407.45 261.081C405.908 225.619 389.196 192.727 361.43 170.37L378.913 148.528C413.106 175.767 433.674 216.368 435.474 259.796L407.45 261.081ZM175.293 213.284L150.097 201.207C169.123 161.89 204.088 132.596 246.251 121.289L253.45 148.271C219.256 157.522 190.719 181.163 175.293 213.284ZM357.574 167.544C336.492 152.125 311.554 143.902 285.33 143.902C276.074 143.902 266.819 144.93 257.821 146.986L251.65 119.747C262.705 117.177 274.018 115.893 285.33 115.893C317.467 115.893 348.318 125.914 374.028 144.93L357.574 167.544Z" fill="url(#paint0_linear)"/>
</g>
<defs>
<filter id="filter0_ddd" x="127.186" y="111.893" width="316.545" height="316.398" filterUnits="userSpaceOnUse" color-interpolation-filters="sRGB">
<feFlood flood-opacity="0" result="BackgroundImageFix"/>
<feColorMatrix in="SourceAlpha" type="matrix" values="0 0 0 0 0 0 0 0 0 0 0 0 0 0 0 0 0 0 127 0"/>
<feOffset/>
<feGaussianBlur stdDeviation="0.5"/>
<feColorMatrix type="matrix" values="0 0 0 0 0.239216 0 0 0 0 0.780392 0 0 0 0 0.886275 0 0 0 0.04 0"/>
<feBlend mode="normal" in2="BackgroundImageFix" result="effect1_dropShadow"/>
<feColorMatrix in="SourceAlpha" type="matrix" values="0 0 0 0 0 0 0 0 0 0 0 0 0 0 0 0 0 0 127 0"/>
<feOffset/>
<feGaussianBlur stdDeviation="1"/>
<feColorMatrix type="matrix" values="0 0 0 0 0.239216 0 0 0 0 0.780392 0 0 0 0 0.886275 0 0 0 0.06 0"/>
<feBlend mode="normal" in2="effect1_dropShadow" result="effect2_dropShadow"/>
<feColorMatrix in="SourceAlpha" type="matrix" values="0 0 0 0 0 0 0 0 0 0 0 0 0 0 0 0 0 0 127 0"/>
<feOffset dy="4"/>
<feGaussianBlur stdDeviation="4"/>
<feColorMatrix type="matrix" values="0 0 0 0 0.788235 0 0 0 0 0.368627 0 0 0 0 0.819608 0 0 0 0.3 0"/>
<feBlend mode="normal" in2="effect2_dropShadow" result="effect3_dropShadow"/>
<feBlend mode="normal" in="SourceGraphic" in2="effect3_dropShadow" result="shape"/>
</filter>
<linearGradient id="paint0_linear" x1="326.632" y1="306.615" x2="225.646" y2="205.579" gradientUnits="userSpaceOnUse">
<stop stop-color="#8C40D0"/>
<stop offset="1" stop-color="#C95ED1"/>
</linearGradient>
</defs>
</svg>
