<svg width="22" height="22" viewBox="0 0 22 22" fill="none" xmlns="http://www.w3.org/2000/svg">
<g clip-path="url(#clip0)">
<path d="M10.3963 5.31055L0.248783 15.4862C-0.0834925 15.8196 -0.082934 16.3594 0.250502 16.6922C0.583895 17.0248 1.12397 17.0239 1.4565 16.6905L11 7.12052L20.5435 16.6908C20.8761 17.0242 21.4158 17.0251 21.7493 16.6925C21.9164 16.5257 22 16.3071 22 16.0885C22 15.8705 21.917 15.6528 21.751 15.4862L11.6037 5.31055C11.444 5.14998 11.2266 5.05987 11 5.05987C10.7735 5.05987 10.5563 5.15024 10.3963 5.31055Z" fill="white"/>
</g>
<defs>
<clipPath id="clip0">
<rect width="22" height="22" fill="white" transform="translate(-6.10352e-05 22) rotate(-90)"/>
</clipPath>
</defs>
</svg>
