<svg width="70" height="70" viewBox="0 0 70 70" fill="none" xmlns="http://www.w3.org/2000/svg">
<path d="M68.0593 4.08591C67.5027 3.85449 66.8621 3.98248 66.4372 4.40886L60.2492 10.5969C53.6096 3.76297 44.7391 0 35.2697 0C33.2666 0 31.2463 0.174866 29.2663 0.518645C15.7883 2.86111 4.86786 12.9512 1.44648 26.2254C1.33114 26.6712 1.42936 27.1444 1.71064 27.5083C1.99265 27.8722 2.42646 28.085 2.88706 28.085H12.3654C12.9897 28.085 13.5486 27.6951 13.7629 27.108C16.5376 19.5232 23.4303 13.7355 31.3222 12.3641C32.6222 12.1387 33.9452 12.0248 35.257 12.0248C41.5283 12.0248 47.3852 14.5355 51.7523 19.0939L45.4684 25.3772C45.0435 25.8028 44.9162 26.4427 45.1454 26.9986C45.3768 27.5552 45.9185 27.9176 46.5205 27.9176H67.4901C68.3116 27.9176 68.9783 27.2508 68.9783 26.4293V5.46029C68.9783 4.85904 68.6144 4.31659 68.0593 4.08591Z" fill="#C95ED1"/>
<path d="M67.1121 41.9141H57.6344C57.0101 41.9141 56.4513 42.3032 56.237 42.8903C53.4623 50.4751 46.5696 56.2635 38.6777 57.6342C37.377 57.8596 36.0547 57.9735 34.7429 57.9735C28.4716 57.9735 22.614 55.4628 18.2476 50.9044L24.5308 44.6211C24.9564 44.1955 25.0837 43.5556 24.8537 42.9997C24.6231 42.4431 24.0806 42.0807 23.4786 42.0807H2.51054C1.68906 42.0807 1.02234 42.7475 1.02234 43.569V64.5388C1.02234 65.1407 1.38472 65.6832 1.94131 65.9139C2.49641 66.1445 3.13708 66.0166 3.56271 65.5902L9.75067 59.4029C16.3896 66.2361 25.26 69.9998 34.7295 69.9998C36.7333 69.9998 38.7536 69.8249 40.7336 69.4811C54.2108 67.1402 65.132 57.0485 68.5534 43.7743C68.6687 43.3279 68.5705 42.8561 68.29 42.4907C68.0072 42.1276 67.5727 41.9141 67.1121 41.9141Z" fill="#C95ED1"/>
</svg>
