<svg width="57" height="57" viewBox="0 0 57 57" fill="none" xmlns="http://www.w3.org/2000/svg">
<path d="M33.7221 28.5467L55.9168 6.35138C57.3612 4.90767 57.3612 2.57338 55.9168 1.12966C54.4731 -0.314054 52.1388 -0.314054 50.6951 1.12966L28.4997 23.325L6.30502 1.12966C4.86062 -0.314054 2.52701 -0.314054 1.08329 1.12966C-0.361098 2.57338 -0.361098 4.90767 1.08329 6.35138L23.278 28.5467L1.08329 50.7421C-0.361098 52.1858 -0.361098 54.5201 1.08329 55.9638C1.80279 56.684 2.74881 57.0458 3.69415 57.0458C4.6395 57.0458 5.58485 56.684 6.30502 55.9638L28.4997 33.7685L50.6951 55.9638C51.4152 56.684 52.3606 57.0458 53.3059 57.0458C54.2513 57.0458 55.1966 56.684 55.9168 55.9638C57.3612 54.5201 57.3612 52.1858 55.9168 50.7421L33.7221 28.5467Z" fill="white"/>
</svg>
