<svg width="13" height="13" viewBox="0 0 13 13" fill="none" xmlns="http://www.w3.org/2000/svg">
<path d="M7.691 6.51169L12.7529 1.44959C13.0824 1.12032 13.0824 0.587939 12.7529 0.25867C12.4237 -0.0705984 11.8913 -0.0705984 11.562 0.25867L6.49993 5.32077L1.43799 0.25867C1.10856 -0.0705984 0.576335 -0.0705984 0.247067 0.25867C-0.0823557 0.587939 -0.0823557 1.12032 0.247067 1.44959L5.30901 6.51169L0.247067 11.5738C-0.0823557 11.9031 -0.0823557 12.4354 0.247067 12.7647C0.411161 12.929 0.626921 13.0115 0.842526 13.0115C1.05813 13.0115 1.27374 12.929 1.43799 12.7647L6.49993 7.70261L11.562 12.7647C11.7263 12.929 11.9419 13.0115 12.1575 13.0115C12.3731 13.0115 12.5887 12.929 12.7529 12.7647C13.0824 12.4354 13.0824 11.9031 12.7529 11.5738L7.691 6.51169Z" fill="white"/>
</svg>
