<svg width="108" height="108" viewBox="0 0 108 108" fill="none" xmlns="http://www.w3.org/2000/svg">
<circle cx="54" cy="54" r="54" fill="url(#paint0_linear)"/>
<g clip-path="url(#clip0)">
<path d="M59.7221 54.5472L81.9168 32.3519C83.3612 30.9081 83.3612 28.5739 81.9168 27.1301C80.4731 25.6864 78.1388 25.6864 76.6951 27.1301L54.4997 49.3255L32.305 27.1301C30.8606 25.6864 28.527 25.6864 27.0833 27.1301C25.6389 28.5739 25.6389 30.9081 27.0833 32.3519L49.278 54.5472L27.0833 76.7426C25.6389 78.1863 25.6389 80.5206 27.0833 81.9643C27.8028 82.6845 28.7488 83.0462 29.6942 83.0462C30.6395 83.0462 31.5848 82.6845 32.305 81.9643L54.4997 59.7689L76.6951 81.9643C77.4152 82.6845 78.3606 83.0462 79.3059 83.0462C80.2513 83.0462 81.1966 82.6845 81.9168 81.9643C83.3612 80.5206 83.3612 78.1863 81.9168 76.7426L59.7221 54.5472Z" fill="white"/>
</g>
<defs>
<linearGradient id="paint0_linear" x1="68.7957" y1="68.569" x2="32.4889" y2="32.2622" gradientUnits="userSpaceOnUse">
<stop stop-color="#8C40D0"/>
<stop offset="1" stop-color="#C95ED1"/>
</linearGradient>
<clipPath id="clip0">
<rect width="57" height="57" fill="white" transform="translate(26 26)"/>
</clipPath>
</defs>
</svg>
