<svg width="24" height="25" viewBox="0 0 24 25" fill="none" xmlns="http://www.w3.org/2000/svg">
<path d="M22.3236 16.9844L20.894 21.8182L18.0874 21.0507L22.3236 16.9844Z" fill="#E4761B"/>
<path d="M18.0874 21.0507L20.7943 17.3418L22.3236 16.9844L18.0874 21.0507Z" fill="#E4761B"/>
<path d="M20.2202 13.3418L22.3237 16.9862L20.7944 17.3436L20.2202 13.3418ZM20.2202 13.3418L21.5737 12.4043L22.3237 16.9862L20.2202 13.3418Z" fill="#F6851B"/>
<path d="M18.4976 10.5898L22.3881 8.99609L22.1947 9.86911L18.4976 10.5898ZM22.0717 10.9179L18.4976 10.5898L22.1947 9.86911L22.0717 10.9179Z" fill="#763D16"/>
<path d="M22.0717 10.9179L21.5736 12.4061L18.4976 10.5898L22.0717 10.9179ZM22.8509 9.36522L22.1947 9.86911L22.3881 8.99609L22.8509 9.36522ZM22.0717 10.9179L22.1947 9.86911L22.7162 10.3027L22.0717 10.9179Z" fill="#763D16"/>
<path d="M15.0698 19.875L16.0425 20.1855L18.0873 21.0527L15.0698 19.875Z" fill="#E2761B"/>
<path d="M21.5736 12.4042L22.0716 10.916L22.4994 11.2441L21.5736 12.4042ZM21.5736 12.4042L17.5366 11.0742L18.4975 10.5879L21.5736 12.4042Z" fill="#763D16"/>
<path d="M19.4584 6.02344L18.4975 10.5877L17.5366 11.0741L19.4584 6.02344Z" fill="#763D16"/>
<path d="M22.3881 8.99405L18.4976 10.5877L19.4585 6.02344L22.3881 8.99405Z" fill="#763D16"/>
<path d="M19.4585 6.02342L23.5189 5.55469L22.3881 8.99403L19.4585 6.02342Z" fill="#763D16"/>
<path d="M21.5736 12.4043L20.2201 13.3417L17.5366 11.0742L21.5736 12.4043Z" fill="#F6851B"/>
<path d="M23.3431 2.26758L23.5189 5.55458L19.4585 6.02332L23.3431 2.26758Z" fill="#763D16"/>
<path d="M23.343 2.26758L15.228 8.16779L15.1226 4.16596L23.343 2.26758Z" fill="#E2761B"/>
<path d="M9.08765 3.68555L15.1226 4.166L15.2281 8.16783L9.08765 3.68555Z" fill="#F6851B"/>
<path d="M17.5366 11.0741L15.228 8.1679L19.4584 6.02344L17.5366 11.0741Z" fill="#763D16"/>
<path d="M17.5366 11.0742L20.2201 13.3417L16.4526 13.7577L17.5366 11.0742Z" fill="#E4761B"/>
<path d="M16.4526 13.7576L15.228 8.16797L17.5366 11.0741L16.4526 13.7576Z" fill="#E4761B"/>
<path d="M19.4584 6.02332L15.228 8.16779L23.343 2.26758L19.4584 6.02332Z" fill="#763D16"/>
<path d="M9.14036 20.959L11.0563 22.957L8.44897 20.584L9.14036 20.959Z" fill="#C0AD9E"/>
<path d="M18.0874 21.0526L18.9956 17.6016L20.7943 17.3438L18.0874 21.0526Z" fill="#CD6116"/>
<path d="M1.37085 11.3436L4.68715 7.85742L1.79857 10.9276L1.37085 11.3436Z" fill="#E2761B"/>
<path d="M20.7943 17.3433L18.9955 17.6011L20.2201 13.3415L20.7943 17.3433ZM15.2281 8.16783L11.9997 8.06236L9.08765 3.68555L15.2281 8.16783Z" fill="#F6851B"/>
<path d="M20.2202 13.3418L18.9956 17.6014L18.896 15.5214L20.2202 13.3418Z" fill="#E4751F"/>
<path d="M16.4526 13.7578L20.2201 13.3418L18.8959 15.5214L16.4526 13.7578Z" fill="#CD6116"/>
<path d="M11.9995 8.0625L15.2279 8.16796L16.4525 13.7576L11.9995 8.0625Z" fill="#F6851B"/>
<path d="M11.9996 8.06225L3.28701 0L9.08761 3.68543L11.9996 8.06225ZM9.08175 22.1829L1.51167 24.5266L0 18.7553L9.08175 22.1829Z" fill="#E4761B"/>
<path d="M2.49609 12.7851L5.35538 10.541L7.75179 11.0976L2.49609 12.7851Z" fill="#763D16"/>
<path d="M7.75163 11.0955L5.35522 10.5389L6.63839 5.24219L7.75163 11.0955Z" fill="#763D16"/>
<path d="M1.79858 10.9277L5.35511 10.541L2.49583 12.7851L1.79858 10.9277Z" fill="#763D16"/>
<path d="M18.8959 15.5214L17.4194 14.7773L16.4526 13.7578L18.8959 15.5214Z" fill="#CD6116"/>
<path d="M1.79858 10.9277L1.54663 9.59766L5.35511 10.541L1.79858 10.9277Z" fill="#763D16"/>
<path d="M17.1147 16.4531L17.4194 14.7773L18.8959 15.5215L17.1147 16.4531Z" fill="#233447"/>
<path d="M18.9955 17.6015L17.1147 16.4531L18.8959 15.5215L18.9955 17.6015Z" fill="#F6851B"/>
<path d="M5.35534 10.5389L1.54687 9.59557L1.23633 8.47646L5.35534 10.5389ZM6.6385 5.24219L5.35534 10.5389L1.23633 8.47646L6.6385 5.24219ZM6.6385 5.24219L11.9997 8.06046L7.75175 11.0955L6.6385 5.24219Z" fill="#763D16"/>
<path d="M7.75171 11.0976L11.9996 8.0625L13.8921 13.8455L7.75171 11.0976ZM13.8921 13.8455L8.02123 13.7225L7.75171 11.0976L13.8921 13.8455Z" fill="#E4761B"/>
<path d="M2.49609 12.785L7.75179 11.0976L8.02131 13.7225L2.49609 12.785ZM16.4527 13.7576L13.8922 13.8455L11.9997 8.0625L16.4527 13.7576Z" fill="#F6851B"/>
<path d="M17.4194 14.7773L17.1147 16.453L16.4526 13.7578L17.4194 14.7773Z" fill="#CD6116"/>
<path d="M3.28711 0L11.9997 8.06225L6.63857 5.24398L3.28711 0Z" fill="#763D16"/>
<path d="M0 18.7559L7.34743 18.4512L9.08175 22.1835L0 18.7559Z" fill="#E4761B"/>
<path d="M9.08173 22.1835L7.34741 18.4512L10.9567 18.2754L9.08173 22.1835Z" fill="#CD6116"/>
<path d="M17.1147 16.453L18.9955 17.6014L20.0326 20.0447L17.1147 16.453ZM8.02123 13.7226L0 18.7557L2.49602 12.7852L8.02123 13.7226ZM7.34743 18.451L0 18.7557L8.02123 13.7226L7.34743 18.451ZM16.4526 13.7578L16.9331 15.5038L14.6128 15.6386L16.4526 13.7578ZM14.6128 15.6386L13.8921 13.8457L16.4526 13.7578L14.6128 15.6386Z" fill="#F6851B"/>
<path d="M11.0561 22.957L9.08154 22.1836L15.9485 23.3379L11.0561 22.957Z" fill="#C0AD9E"/>
<path d="M2.49581 12.7851L1.37085 11.3437L1.79857 10.9277L2.49581 12.7851Z" fill="#763D16"/>
<path d="M16.7278 22.4824L15.9485 23.3379L9.08154 22.1836L16.7278 22.4824Z" fill="#D7C1B3"/>
<path d="M17.0969 20.3847L9.08154 22.1835L10.9565 18.2754L17.0969 20.3847Z" fill="#E4761B"/>
<path d="M9.08154 22.1835L17.0969 20.3848L16.7278 22.4824L9.08154 22.1835Z" fill="#D7C1B3"/>
<path d="M1.23632 8.47837L0.972656 3.97266L6.63849 5.2441L1.23632 8.47837ZM1.7988 10.9275L1.01953 10.1365L1.54686 9.59748L1.7988 10.9275Z" fill="#763D16"/>
<path d="M12.5798 15.0058L13.8923 13.8457L13.7048 16.6816L12.5798 15.0058Z" fill="#CD6116"/>
<path d="M13.8922 13.8457L12.5798 15.0058L10.6697 15.996L13.8922 13.8457Z" fill="#CD6116"/>
<path d="M20.0326 20.0448L19.6752 19.7811L17.1147 16.4531L20.0326 20.0448Z" fill="#F6851B"/>
<path d="M10.6696 15.996L8.02124 13.7227L13.8921 13.8457L10.6696 15.996Z" fill="#CD6116"/>
<path d="M13.7046 16.6816L13.8921 13.8457L14.6128 15.6386L13.7046 16.6816Z" fill="#E4751F"/>
<path d="M0.761719 8.92381L1.23631 8.47852L1.54685 9.59762L0.761719 8.92381Z" fill="#763D16"/>
<path d="M13.7047 16.6796L10.6697 15.9941L12.5798 15.0039L13.7047 16.6796Z" fill="#233447"/>
<path d="M6.63849 5.24398L0.972656 3.97253L3.28704 0L6.63849 5.24398Z" fill="#763D16"/>
<path d="M15.9486 23.3379L16.2708 24.2168L11.0562 22.957L15.9486 23.3379Z" fill="#C0AD9E"/>
<path d="M10.9568 18.2753L10.6697 15.9961L13.7047 16.6816L10.9568 18.2753Z" fill="#F6851B"/>
<path d="M8.02124 13.7227L10.6696 15.996L10.9567 18.2752L8.02124 13.7227Z" fill="#E4751F"/>
<path d="M14.6128 15.6386L16.933 15.5039L19.6752 19.7811L14.6128 15.6386ZM8.02122 13.7227L10.9567 18.2752L7.34741 18.451L8.02122 13.7227Z" fill="#F6851B"/>
<path d="M14.6128 15.6367L17.4955 20.0253L13.7046 16.6797L14.6128 15.6367Z" fill="#E4751F"/>
<path d="M13.7046 16.6797L17.4955 20.0253L17.0971 20.3827L13.7046 16.6797Z" fill="#F6851B"/>
<path d="M17.0972 20.3827L10.9568 18.2734L13.7047 16.6797L17.0972 20.3827ZM19.6753 19.7792L17.4956 20.0253L14.6129 15.6367L19.6753 19.7792Z" fill="#F6851B"/>
<path d="M20.2494 21.8438L19.3119 23.7246L16.271 24.2167L20.2494 21.8438ZM16.271 24.2167L15.9487 23.3378L16.728 22.4824L16.271 24.2167Z" fill="#C0AD9E"/>
<path d="M16.728 22.4824L17.3022 22.2539L16.271 24.2167L16.728 22.4824ZM16.271 24.2167L17.3022 22.2539L20.2494 21.8438L16.271 24.2167Z" fill="#C0AD9E"/>
<path d="M19.6752 19.7793L20.3959 20.2187L18.2046 20.4824L19.6752 19.7793Z" fill="#161616"/>
<path d="M18.2043 20.4824L17.4954 20.0254L19.675 19.7793L18.2043 20.4824ZM17.9524 20.8281L20.6183 20.5058L20.2492 21.8417L17.9524 20.8281Z" fill="#161616"/>
<path d="M20.2494 21.8417L17.3022 22.2519L17.9526 20.8281L20.2494 21.8417ZM17.3022 22.2519L16.728 22.4804L17.0972 20.3828L17.3022 22.2519ZM17.0972 20.3828L17.4956 20.0254L18.2045 20.4824L17.0972 20.3828ZM20.3959 20.2187L20.6185 20.5058L17.9526 20.8281L20.3959 20.2187Z" fill="#161616"/>
<path d="M17.9526 20.8301L18.2046 20.4844L20.3959 20.2207L17.9526 20.8301ZM17.0972 20.3848L17.9526 20.8301L17.3022 22.2538L17.0972 20.3848Z" fill="#161616"/>
<path d="M18.2046 20.4844L17.9526 20.8301L17.0972 20.3848L18.2046 20.4844Z" fill="#161616"/>
</svg>
