<svg width="185" height="101" viewBox="0 0 185 101" fill="none" xmlns="http://www.w3.org/2000/svg">
<path d="M108.15 29.35V31.65H100.575V37.125H106.825V39.325H100.575V47H97.725V29.35H108.15ZM113.539 35.925C114.006 35.025 114.672 34.3167 115.539 33.8C116.406 33.2667 117.406 33 118.539 33V36.1H117.689C116.439 36.1 115.431 36.4083 114.664 37.025C113.914 37.625 113.539 38.625 113.539 40.025V47H110.689V33.225H113.539V35.925ZM126.199 33.05C127.449 33.05 128.516 33.3583 129.399 33.975C130.283 34.5917 130.908 35.4083 131.274 36.425V33.225H134.124V47H131.274V43.8C130.908 44.8167 130.283 45.6333 129.399 46.25C128.516 46.8667 127.449 47.175 126.199 47.175C124.999 47.175 123.924 46.8917 122.974 46.325C122.041 45.7583 121.308 44.9417 120.774 43.875C120.241 42.8083 119.974 41.55 119.974 40.1C119.974 38.6667 120.241 37.4167 120.774 36.35C121.308 35.2833 122.041 34.4667 122.974 33.9C123.924 33.3333 124.999 33.05 126.199 33.05ZM127.074 35.55C125.808 35.55 124.791 35.9583 124.024 36.775C123.274 37.575 122.899 38.6833 122.899 40.1C122.899 41.5167 123.274 42.6333 124.024 43.45C124.791 44.25 125.808 44.65 127.074 44.65C127.874 44.65 128.591 44.4667 129.224 44.1C129.858 43.7167 130.358 43.1833 130.724 42.5C131.091 41.8167 131.274 41.0167 131.274 40.1C131.274 39.2 131.091 38.4083 130.724 37.725C130.358 37.025 129.858 36.4917 129.224 36.125C128.591 35.7417 127.874 35.55 127.074 35.55ZM143.669 33.05C145.453 33.05 146.928 33.525 148.094 34.475C149.261 35.4083 149.986 36.6833 150.269 38.3H147.244C147.078 37.4333 146.669 36.7583 146.019 36.275C145.386 35.775 144.586 35.525 143.619 35.525C142.519 35.525 141.603 35.9167 140.869 36.7C140.136 37.4667 139.769 38.6 139.769 40.1C139.769 41.6 140.136 42.7417 140.869 43.525C141.603 44.3083 142.519 44.7 143.619 44.7C144.586 44.7 145.386 44.45 146.019 43.95C146.669 43.45 147.078 42.7667 147.244 41.9H150.269C149.986 43.5167 149.261 44.8 148.094 45.75C146.928 46.7 145.453 47.175 143.669 47.175C142.336 47.175 141.153 46.8917 140.119 46.325C139.103 45.7583 138.303 44.9417 137.719 43.875C137.136 42.8083 136.844 41.55 136.844 40.1C136.844 38.6667 137.136 37.4167 137.719 36.35C138.303 35.2833 139.103 34.4667 140.119 33.9C141.153 33.3333 142.336 33.05 143.669 33.05ZM159.948 44.525V47H158.198C156.731 47 155.615 46.65 154.848 45.95C154.098 45.2333 153.723 44.05 153.723 42.4V35.65H151.748V33.225H153.723V29.8H156.598V33.225H159.923V35.65H156.598V42.45C156.598 43.2333 156.74 43.775 157.023 44.075C157.323 44.375 157.84 44.525 158.573 44.525H159.948ZM168.143 33.05C169.393 33.05 170.459 33.3583 171.343 33.975C172.226 34.5917 172.851 35.4083 173.218 36.425V33.225H176.068V47H173.218V43.8C172.851 44.8167 172.226 45.6333 171.343 46.25C170.459 46.8667 169.393 47.175 168.143 47.175C166.943 47.175 165.868 46.8917 164.918 46.325C163.984 45.7583 163.251 44.9417 162.718 43.875C162.184 42.8083 161.918 41.55 161.918 40.1C161.918 38.6667 162.184 37.4167 162.718 36.35C163.251 35.2833 163.984 34.4667 164.918 33.9C165.868 33.3333 166.943 33.05 168.143 33.05ZM169.018 35.55C167.751 35.55 166.734 35.9583 165.968 36.775C165.218 37.575 164.843 38.6833 164.843 40.1C164.843 41.5167 165.218 42.6333 165.968 43.45C166.734 44.25 167.751 44.65 169.018 44.65C169.818 44.65 170.534 44.4667 171.168 44.1C171.801 43.7167 172.301 43.1833 172.668 42.5C173.034 41.8167 173.218 41.0167 173.218 40.1C173.218 39.2 173.034 38.4083 172.668 37.725C172.301 37.025 171.801 36.4917 171.168 36.125C170.534 35.7417 169.818 35.55 169.018 35.55ZM182.338 28.5V47H179.488V28.5H182.338ZM109.075 55.35V57.65H104.15V73H101.275V57.65H96.375V55.35H109.075ZM114.052 61.925C114.518 61.025 115.185 60.3167 116.052 59.8C116.918 59.2667 117.918 59 119.052 59V62.1H118.202C116.952 62.1 115.943 62.4083 115.177 63.025C114.427 63.625 114.052 64.625 114.052 66.025V73H111.202V59.225H114.052V61.925ZM126.712 59.05C127.962 59.05 129.029 59.3583 129.912 59.975C130.795 60.5917 131.42 61.4083 131.787 62.425V59.225H134.637V73H131.787V69.8C131.42 70.8167 130.795 71.6333 129.912 72.25C129.029 72.8667 127.962 73.175 126.712 73.175C125.512 73.175 124.437 72.8917 123.487 72.325C122.554 71.7583 121.82 70.9417 121.287 69.875C120.754 68.8083 120.487 67.55 120.487 66.1C120.487 64.6667 120.754 63.4167 121.287 62.35C121.82 61.2833 122.554 60.4667 123.487 59.9C124.437 59.3333 125.512 59.05 126.712 59.05ZM127.587 61.55C126.32 61.55 125.304 61.9583 124.537 62.775C123.787 63.575 123.412 64.6833 123.412 66.1C123.412 67.5167 123.787 68.6333 124.537 69.45C125.304 70.25 126.32 70.65 127.587 70.65C128.387 70.65 129.104 70.4667 129.737 70.1C130.37 69.7167 130.87 69.1833 131.237 68.5C131.604 67.8167 131.787 67.0167 131.787 66.1C131.787 65.2 131.604 64.4083 131.237 63.725C130.87 63.025 130.37 62.4917 129.737 62.125C129.104 61.7417 128.387 61.55 127.587 61.55ZM143.582 59.05C144.832 59.05 145.899 59.3583 146.782 59.975C147.665 60.5917 148.282 61.4083 148.632 62.425V54.5H151.507V73H148.632V69.8C148.282 70.8167 147.665 71.6333 146.782 72.25C145.899 72.8667 144.832 73.175 143.582 73.175C142.382 73.175 141.307 72.8917 140.357 72.325C139.424 71.7583 138.69 70.9417 138.157 69.875C137.624 68.8083 137.357 67.55 137.357 66.1C137.357 64.6667 137.624 63.4167 138.157 62.35C138.69 61.2833 139.424 60.4667 140.357 59.9C141.307 59.3333 142.382 59.05 143.582 59.05ZM144.457 61.55C143.19 61.55 142.174 61.9583 141.407 62.775C140.657 63.575 140.282 64.6833 140.282 66.1C140.282 67.5167 140.657 68.6333 141.407 69.45C142.174 70.25 143.19 70.65 144.457 70.65C145.257 70.65 145.974 70.4667 146.607 70.1C147.24 69.7167 147.74 69.1833 148.107 68.5C148.474 67.8167 148.657 67.0167 148.657 66.1C148.657 65.2 148.474 64.4083 148.107 63.725C147.74 63.025 147.24 62.4917 146.607 62.125C145.974 61.7417 145.257 61.55 144.457 61.55ZM167.727 65.45C167.727 65.9167 167.694 66.325 167.627 66.675H157.027C157.077 68.0917 157.469 69.1417 158.202 69.825C158.935 70.5083 159.844 70.85 160.927 70.85C161.877 70.85 162.677 70.6083 163.327 70.125C163.994 69.6417 164.402 69 164.552 68.2H167.602C167.419 69.1667 167.035 70.025 166.452 70.775C165.869 71.525 165.11 72.1167 164.177 72.55C163.244 72.9667 162.202 73.175 161.052 73.175C159.719 73.175 158.535 72.8917 157.502 72.325C156.485 71.7583 155.685 70.9417 155.102 69.875C154.519 68.8083 154.227 67.55 154.227 66.1C154.227 64.6667 154.519 63.4167 155.102 62.35C155.685 61.2833 156.485 60.4667 157.502 59.9C158.535 59.3333 159.719 59.05 161.052 59.05C162.402 59.05 163.577 59.3333 164.577 59.9C165.594 60.45 166.369 61.2167 166.902 62.2C167.452 63.1667 167.727 64.25 167.727 65.45ZM164.852 65.375C164.885 64.475 164.727 63.725 164.377 63.125C164.044 62.5083 163.577 62.0583 162.977 61.775C162.394 61.475 161.752 61.325 161.052 61.325C159.935 61.325 159.002 61.6667 158.252 62.35C157.502 63.0333 157.094 64.0417 157.027 65.375H164.852Z" fill="white"/>
<path d="M19.9645 4.53553L4.53553 19.9645C2.58291 21.9171 2.58291 25.0829 4.53553 27.0355L19.9645 42.4645C21.9171 44.4171 25.0829 44.4171 27.0355 42.4645L42.4645 27.0355C44.4171 25.0829 44.4171 21.9171 42.4645 19.9645L27.0355 4.53553C25.0829 2.58291 21.9171 2.58291 19.9645 4.53553Z" fill="#2A2B4B" stroke="#C95ED1" stroke-width="5"/>
<g filter="url(#filter0_d)">
<path d="M29.15 15.35V17.65H21.575V23.125H27.825V25.325H21.575V33H18.725V15.35H29.15Z" fill="white"/>
</g>
<path d="M48.425 32.6563L33.4179 48.0044C31.518 49.9475 31.518 53.0524 33.4179 54.9956L48.425 70.3437C50.3863 72.3496 53.6137 72.3496 55.575 70.3437L70.5821 54.9956C72.482 53.0525 72.4821 49.9475 70.5821 48.0044L55.575 32.6563C53.6137 30.6504 50.3863 30.6504 48.425 32.6563Z" fill="#2A2B4B" stroke="#C95ED1" stroke-width="5"/>
<path d="M20.0044 59.4179L4.65628 74.425C2.6504 76.3863 2.6504 79.6137 4.65628 81.575L20.0044 96.5821C21.9475 98.482 25.0525 98.482 26.9956 96.5821L42.3437 81.575C44.3496 79.6137 44.3496 76.3863 42.3437 74.425L26.9956 59.4179C25.0525 57.518 21.9475 57.518 20.0044 59.4179Z" fill="#2A2B4B" stroke="#C95ED1" stroke-width="5"/>
<g filter="url(#filter1_d)">
<path d="M53.575 43.35V61H50.725V43.35H53.575Z" fill="white"/>
</g>
<g filter="url(#filter2_d)">
<path d="M30.075 70.35V72.65H25.15V88H22.275V72.65H17.375V70.35H30.075Z" fill="white"/>
</g>
<defs>
<filter id="filter0_d" x="17.725" y="15.3496" width="12.425" height="19.65" filterUnits="userSpaceOnUse" color-interpolation-filters="sRGB">
<feFlood flood-opacity="0" result="BackgroundImageFix"/>
<feColorMatrix in="SourceAlpha" type="matrix" values="0 0 0 0 0 0 0 0 0 0 0 0 0 0 0 0 0 0 127 0"/>
<feOffset dy="1"/>
<feGaussianBlur stdDeviation="0.5"/>
<feColorMatrix type="matrix" values="0 0 0 0 0 0 0 0 0 0 0 0 0 0 0 0 0 0 0.25 0"/>
<feBlend mode="normal" in2="BackgroundImageFix" result="effect1_dropShadow"/>
<feBlend mode="normal" in="SourceGraphic" in2="effect1_dropShadow" result="shape"/>
</filter>
<filter id="filter1_d" x="49.725" y="43.3496" width="4.85" height="19.65" filterUnits="userSpaceOnUse" color-interpolation-filters="sRGB">
<feFlood flood-opacity="0" result="BackgroundImageFix"/>
<feColorMatrix in="SourceAlpha" type="matrix" values="0 0 0 0 0 0 0 0 0 0 0 0 0 0 0 0 0 0 127 0"/>
<feOffset dy="1"/>
<feGaussianBlur stdDeviation="0.5"/>
<feColorMatrix type="matrix" values="0 0 0 0 0 0 0 0 0 0 0 0 0 0 0 0 0 0 0.25 0"/>
<feBlend mode="normal" in2="BackgroundImageFix" result="effect1_dropShadow"/>
<feBlend mode="normal" in="SourceGraphic" in2="effect1_dropShadow" result="shape"/>
</filter>
<filter id="filter2_d" x="16.375" y="70.3496" width="14.7" height="19.65" filterUnits="userSpaceOnUse" color-interpolation-filters="sRGB">
<feFlood flood-opacity="0" result="BackgroundImageFix"/>
<feColorMatrix in="SourceAlpha" type="matrix" values="0 0 0 0 0 0 0 0 0 0 0 0 0 0 0 0 0 0 127 0"/>
<feOffset dy="1"/>
<feGaussianBlur stdDeviation="0.5"/>
<feColorMatrix type="matrix" values="0 0 0 0 0 0 0 0 0 0 0 0 0 0 0 0 0 0 0.25 0"/>
<feBlend mode="normal" in2="BackgroundImageFix" result="effect1_dropShadow"/>
<feBlend mode="normal" in="SourceGraphic" in2="effect1_dropShadow" result="shape"/>
</filter>
</defs>
</svg>
