<svg width="81" height="81" viewBox="0 0 81 81" fill="none" xmlns="http://www.w3.org/2000/svg">
<g clip-path="url(#clip0)">
<path d="M2.37299 81.0005H26.5902C27.9008 81.0005 28.9633 79.938 28.9633 78.6274V75.9835C28.9633 70.4975 25.8968 65.7143 21.3881 63.2575C22.9894 61.5575 23.9739 59.2702 23.9739 56.7559C23.9739 51.5219 19.7157 47.2637 14.4817 47.2637C9.2477 47.2637 4.98951 51.5219 4.98951 56.7559C4.98951 59.2702 5.97401 61.5575 7.57534 63.2575C3.06639 65.7143 -6.10352e-05 70.4975 -6.10352e-05 75.9835V78.6274C-6.10352e-05 79.938 1.06243 81.0005 2.37299 81.0005ZM9.7356 56.7559C9.7356 54.1389 11.8647 52.0098 14.4817 52.0098C17.0987 52.0098 19.2278 54.1389 19.2278 56.7559C19.2278 59.3729 17.0987 61.502 14.4817 61.502C11.8647 61.502 9.7356 59.3729 9.7356 56.7559ZM14.4817 66.248C19.5659 66.248 24.2172 70.2337 24.2172 76.2544H4.74603C4.74603 70.265 9.37031 66.248 14.4817 66.248Z" fill="#5E2CED"/>
<path d="M73.4247 63.2575C75.026 61.5575 76.0105 59.2702 76.0105 56.7559C76.0105 51.5219 71.7523 47.2637 66.5183 47.2637C61.2843 47.2637 57.0261 51.5219 57.0261 56.7559C57.0261 59.2702 58.0106 61.5575 59.6119 63.2575C55.1032 65.7143 52.0367 70.4974 52.0367 75.9835V78.6274C52.0367 79.938 53.0992 81.0005 54.4098 81.0005H78.6269C79.9374 81.0005 80.9999 79.938 80.9999 78.6274V75.9835C80.9999 70.4975 77.9334 65.7143 73.4247 63.2575ZM61.7721 56.7559C61.7721 54.1389 63.9012 52.0098 66.5181 52.0098C69.1351 52.0098 71.2642 54.1389 71.2642 56.7559C71.2642 59.3729 69.1351 61.502 66.5181 61.502C63.9012 61.502 61.7721 59.3729 61.7721 56.7559ZM76.2538 76.2544H56.7826C56.7826 70.265 61.4069 66.248 66.5181 66.248C71.6022 66.248 76.2538 70.2332 76.2538 76.2544Z" fill="#5E2CED"/>
<path d="M54.9817 31.3638V28.7199C54.9817 23.2339 51.9152 18.4506 47.4064 15.9939C49.0076 14.2938 49.9921 12.0065 49.9921 9.49219C49.9921 4.2582 45.7339 0 40.4999 0C35.2659 0 31.0077 4.2582 31.0077 9.49219C31.0077 12.0065 31.9922 14.2938 33.5935 15.9939C29.0848 18.4506 26.0183 23.2339 26.0183 28.7199V31.3638C26.0183 32.6743 27.0808 33.7368 28.3914 33.7368H52.6086C53.9192 33.7368 54.9817 32.6743 54.9817 31.3638ZM35.7538 9.49219C35.7538 6.87519 37.8829 4.74609 40.4999 4.74609C43.1169 4.74609 45.246 6.87519 45.246 9.49219C45.246 12.1092 43.1169 14.2383 40.4999 14.2383C37.8829 14.2383 35.7538 12.1092 35.7538 9.49219ZM50.2356 28.9907H30.7642C30.7642 23.0013 35.3885 18.9844 40.4999 18.9844C45.5838 18.9844 50.2356 22.9695 50.2356 28.9907Z" fill="#5E2CED"/>
<path d="M50.0869 59.9669C46.9866 60.9854 43.7173 61.5016 40.3704 61.5016C37.1406 61.5016 33.978 61.0193 30.9704 60.068C29.7204 59.6733 28.3873 60.3654 27.9922 61.6149C27.597 62.8644 28.2896 64.1979 29.5391 64.5931C33.0101 65.6909 36.6543 66.2476 40.3702 66.2476C44.2213 66.2476 47.9888 65.6515 51.568 64.4759C52.8132 64.0669 53.4909 62.7258 53.082 61.4808C52.673 60.2357 51.3321 59.5576 50.0869 59.9669Z" fill="#5E2CED"/>
<path d="M18.6252 19.6664C16.0044 22.1927 13.7764 25.1296 12.0031 28.3957C10.1654 31.7805 8.89157 35.3758 8.21699 39.082C7.95263 40.5345 9.06717 41.8803 10.5544 41.8803C11.6789 41.8803 12.6778 41.0774 12.8864 39.9319C13.4708 36.7215 14.5769 33.602 16.174 30.6604C17.7153 27.8218 19.6481 25.2725 21.919 23.0836C22.8625 22.1741 22.8902 20.6718 21.9807 19.7281C21.071 18.7846 19.5689 18.7569 18.6252 19.6664Z" fill="#5E2CED"/>
<path d="M62.3747 19.6665C61.431 18.7568 59.9287 18.7846 59.0192 19.7282C58.1097 20.6718 58.1372 22.1741 59.0809 23.0836C61.3517 25.2725 63.2846 27.8217 64.8259 30.6605C66.4231 33.6023 67.5291 36.7217 68.1135 39.932C68.3479 41.2199 69.5819 42.0764 70.873 41.8416C72.1624 41.607 73.0175 40.3713 72.7828 39.0821C72.1083 35.3759 70.8344 31.7805 68.9967 28.3958C67.2234 25.1297 64.9955 22.1926 62.3747 19.6665Z" fill="#5E2CED"/>
</g>
<defs>
<clipPath id="clip0">
<rect width="81" height="81" fill="white"/>
</clipPath>
</defs>
</svg>
