<svg width="101" height="101" viewBox="0 0 101 101" fill="none" xmlns="http://www.w3.org/2000/svg">
<path d="M26.361 34.9455L34.946 43.4295L49.995 28.6835L64.943 43.4295L73.528 34.9455L49.894 11.3115L26.361 34.9455Z" fill="#C95ED1"/>
<path d="M73.528 64.6397L64.943 56.0547L49.894 70.8007L34.946 56.0547L26.361 64.5387L49.894 88.1727L73.528 64.6397Z" fill="#C95ED1"/>
<path d="M41.309 49.9952L49.995 41.4102L58.681 49.9952L49.995 58.6811L41.309 49.9952Z" fill="#C95ED1"/>
<path d="M11.3119 49.9952L19.9979 41.4102L28.6839 49.9952L19.9979 58.6811L11.3119 49.9952Z" fill="#C95ED1"/>
<path d="M71.205 49.9952L79.891 41.4102L88.577 49.9952L79.891 58.6811L71.205 49.9952Z" fill="#C95ED1"/>
</svg>
