<svg width="21" height="21" viewBox="0 0 21 21" fill="none" xmlns="http://www.w3.org/2000/svg">
<path d="M6.42405 8.82395L10.5026 4.74702L14.5829 8.82726L16.9547 6.45376L10.5026 0L4.05054 6.4521L6.42405 8.82395Z" fill="#F3BA2F"/>
<path d="M0 10.5005L2.37185 8.12695L4.74536 10.5005L2.37185 12.8723L0 10.5005Z" fill="#F3BA2F"/>
<path d="M6.42405 12.1755L10.5026 16.2541L14.5829 12.1738L16.9564 14.544L10.5043 20.9978L4.05054 14.549L6.42405 12.1755Z" fill="#F3BA2F"/>
<path d="M16.2546 10.5005L18.6265 8.12695L21 10.4988L18.6265 12.874L16.2546 10.5005Z" fill="#F3BA2F"/>
<path d="M12.9091 10.5001L10.5024 8.0918L8.72267 9.87151L8.517 10.0755L8.0957 10.4968L10.5024 12.9018L12.9091 10.5018V10.5001Z" fill="#F3BA2F"/>
</svg>
