<svg width="81" height="81" viewBox="0 0 81 81" fill="none" xmlns="http://www.w3.org/2000/svg">
<g clip-path="url(#clip0)">
<path d="M50.8781 0L55.1989 4.32084C56.1871 5.3093 56.1871 6.91158 55.1989 7.90003L29.5827 33.5213L33.1593 37.1005L58.7807 11.4817C60.4647 9.79784 61.2613 7.42131 60.9322 5.0625H75.9375V20.0677C73.5806 19.7502 71.2099 20.5452 69.5208 22.2193L43.8994 47.8406L47.4786 51.4198L73.1025 25.7985C74.1026 24.8415 75.679 24.8415 76.6791 25.7985L81 30.1219V0H50.8781Z" fill="#5E2CED"/>
<path d="M36.7421 54.9984L40.3217 58.5781L43.9014 54.9984L40.3217 51.4187L36.7421 54.9984Z" fill="#5E2CED"/>
<path d="M29.5811 62.1615L33.1608 65.7412L36.7405 62.1615L33.1608 58.5818L29.5811 62.1615Z" fill="#5E2CED"/>
<path d="M15.2612 47.8422L18.8409 51.4219L22.4206 47.8422L18.8409 44.2625L15.2612 47.8422Z" fill="#5E2CED"/>
<path d="M26.0015 37.098L22.4218 40.6777L26.0015 44.2574L29.5811 40.6777L26.0015 37.098Z" fill="#5E2CED"/>
<path d="M5.06244 60.75H-6.10352e-05V81H20.2499V75.9375H5.06244V60.75Z" fill="#5E2CED"/>
<path d="M75.9374 75.9375H60.7499V81H80.9999V60.75H75.9374V75.9375Z" fill="#5E2CED"/>
<path d="M5.06244 5.0625H20.2499V0H-6.10352e-05V20.25H5.06244V5.0625Z" fill="#5E2CED"/>
</g>
<defs>
<clipPath id="clip0">
<rect width="81" height="81" fill="white"/>
</clipPath>
</defs>
</svg>
