<svg width="38" height="32" viewBox="0 0 38 32" fill="none" xmlns="http://www.w3.org/2000/svg">
<path d="M38 4.21763C36.5869 4.8375 35.0811 5.24837 33.5112 5.44787C35.1262 4.48362 36.3589 2.96837 36.9384 1.142C35.4326 2.03975 33.7701 2.67388 31.9984 3.02775C30.5686 1.50538 28.5309 0.5625 26.3079 0.5625C21.9949 0.5625 18.5226 4.06325 18.5226 8.35488C18.5226 8.97238 18.5749 9.56612 18.7031 10.1314C12.2265 9.8155 6.49563 6.71138 2.64575 1.98275C1.97362 3.14888 1.57938 4.48363 1.57938 5.9205C1.57938 8.6185 2.96875 11.0101 5.03975 12.3947C3.78812 12.371 2.56025 12.0076 1.52 11.4353C1.52 11.459 1.52 11.4899 1.52 11.5207C1.52 15.3065 4.22037 18.451 7.7615 19.1754C7.12737 19.3487 6.43625 19.4319 5.719 19.4319C5.22025 19.4319 4.71675 19.4034 4.24412 19.2989C5.2535 22.384 8.11775 24.6521 11.5235 24.7257C8.873 26.7991 5.50763 28.0484 1.86438 28.0484C1.2255 28.0484 0.61275 28.0199 0 27.9415C3.45087 30.1669 7.54063 31.4375 11.951 31.4375C26.2865 31.4375 34.124 19.5625 34.124 9.26925C34.124 8.92487 34.1121 8.59238 34.0955 8.26225C35.6416 7.165 36.9407 5.79463 38 4.21763Z" fill="url(#paint0_linear)"/>
<defs>
<linearGradient id="paint0_linear" x1="19" y1="0.5625" x2="19" y2="31.4375" gradientUnits="userSpaceOnUse">
<stop stop-color="#8C40D0"/>
<stop offset="1" stop-color="#C95ED1"/>
</linearGradient>
</defs>
</svg>
