<svg width="94" height="94" viewBox="0 0 94 94" fill="none" xmlns="http://www.w3.org/2000/svg">
<g clip-path="url(#clip0)">
<path d="M76.6806 37.57H41.6636C43.2828 35.7088 44.2667 33.2808 44.2667 30.6259C44.2667 24.7834 39.5136 20.0303 33.6711 20.0303C27.8286 20.0303 23.0755 24.7834 23.0755 30.6259C23.0755 33.2808 24.0594 35.7088 25.6784 37.57H17.3195C12.2683 37.57 8.15881 41.6795 8.15881 46.7307V57.5401C8.15881 58.552 8.97906 59.3722 9.99095 59.3722C11.0028 59.3722 11.8231 58.552 11.8231 57.5401V46.7307C11.8231 43.7 14.2888 41.2343 17.3195 41.2343H68.6192C71.6499 41.2343 74.1156 43.7 74.1156 46.7307V56.6242H55.0614C50.0102 56.6242 45.9008 60.7337 45.9008 65.7849C45.9008 70.8361 50.0102 74.9456 55.0614 74.9456H74.1156V84.8391C74.1156 87.8698 71.6499 90.3355 68.6192 90.3355H17.3195C14.2888 90.3355 11.8231 87.8698 11.8231 84.8391V74.0152C11.8231 73.0033 11.0028 72.1831 9.99095 72.1831C8.97906 72.1831 8.15881 73.0033 8.15881 74.0152V84.8391C8.15881 89.8903 12.2683 93.9998 17.3195 93.9998H76.6806C81.7318 93.9998 85.8413 89.8903 85.8413 84.8391V46.7307C85.8413 41.6795 81.7318 37.57 76.6806 37.57ZM33.6711 23.6947C37.4931 23.6947 40.6024 26.804 40.6024 30.6261C40.6024 34.4481 37.4931 37.5574 33.6711 37.5574C29.8493 37.5574 26.7398 34.4481 26.7398 30.6261C26.7398 26.804 29.8491 23.6947 33.6711 23.6947ZM75.9428 41.2343H76.6806C79.7113 41.2343 82.177 43.7 82.177 46.7307V56.6242H77.7799V46.7307C77.7799 44.6701 77.0956 42.7665 75.9428 41.2343ZM49.565 65.7849C49.565 62.7542 52.0307 60.2885 55.0614 60.2885H82.177V71.2813H55.0614C52.0307 71.2813 49.565 68.8156 49.565 65.7849ZM76.6806 90.3355H75.9428C77.0956 88.8033 77.7799 86.8999 77.7799 84.8391V74.9456H82.177V84.8391C82.177 87.8698 79.7113 90.3355 76.6806 90.3355Z" fill="#5E2CED"/>
<path d="M54.5924 63.9531C54.1088 63.9531 53.6361 64.1492 53.2953 64.4899C52.9545 64.8307 52.7603 65.3034 52.7603 65.7853C52.7603 66.2671 52.9545 66.7398 53.2953 67.0806C53.6379 67.4214 54.1088 67.6174 54.5924 67.6174C55.0743 67.6174 55.5452 67.4214 55.8878 67.0806C56.2285 66.7398 56.4246 66.2671 56.4246 65.7853C56.4246 65.3034 56.2285 64.8307 55.8878 64.4899C55.547 64.149 55.0743 63.9531 54.5924 63.9531Z" fill="#5E2CED"/>
<path d="M60.3289 25.2215C66.1714 25.2215 70.9245 20.4684 70.9245 14.6259C70.9245 8.78356 66.1714 4.03027 60.3289 4.03027C54.4864 4.03027 49.7333 8.78338 49.7333 14.6259C49.7333 20.4684 54.4864 25.2215 60.3289 25.2215ZM60.3289 7.69472C64.1507 7.69472 67.2602 10.804 67.2602 14.6261C67.2602 18.4481 64.1509 21.5574 60.3289 21.5574C56.5069 21.5574 53.3976 18.4481 53.3976 14.6261C53.3976 10.804 56.5069 7.69472 60.3289 7.69472Z" fill="#5E2CED"/>
<path d="M42.4346 18.0614C43.4464 18.0614 44.2667 17.2411 44.2667 16.2292V1.83213C44.2667 0.820246 43.4464 0 42.4346 0C41.4227 0 40.6024 0.820246 40.6024 1.83213V16.2292C40.6024 17.2411 41.4227 18.0614 42.4346 18.0614Z" fill="#5E2CED"/>
<path d="M33.6404 11.7257C34.6523 11.7257 35.4725 10.9054 35.4725 9.89352V1.83213C35.4725 0.820246 34.6523 0 33.6404 0C32.6285 0 31.8083 0.820246 31.8083 1.83213V9.89352C31.8083 10.9054 32.6285 11.7257 33.6404 11.7257Z" fill="#5E2CED"/>
<path d="M9.99095 67.6174C10.4728 67.6174 10.9455 67.4214 11.2863 67.0806C11.627 66.7398 11.8231 66.2671 11.8231 65.7853C11.8231 65.3034 11.627 64.8307 11.2863 64.4899C10.9455 64.1492 10.4746 63.9531 9.99095 63.9531C9.5091 63.9531 9.03641 64.1492 8.69563 64.4899C8.35485 64.8307 8.15881 65.3034 8.15881 65.7853C8.15881 66.2671 8.35485 66.7398 8.69563 67.0806C9.03641 67.4214 9.50891 67.6174 9.99095 67.6174Z" fill="#5E2CED"/>
</g>
<defs>
<clipPath id="clip0">
<rect width="94" height="94" fill="white"/>
</clipPath>
</defs>
</svg>
